<svg version="1.1" xmlns="http://www.w3.org/2000/svg" xmlns:xlink="http://www.w3.org/1999/xlink" width="968.8291015625" height="329"><defs/><g><g><path fill="#ffffff" stroke="none" paint-order="stroke fill markers" d=" M 50.517421875 19.850000000000023 C 50.517421875 14.962279520000038 54.475224243 11 59.357421875 11 C 64.239619507 11 68.197421875 14.962279520000038 68.197421875 19.850000000000023 C 68.197421875 24.737720480000007 64.239619507 28.69999999999999 59.357421875 28.69999999999999 C 54.475224243 28.69999999999999 50.517421875 24.737720480000007 50.517421875 19.850000000000023 Z"/></g><g><path fill="none" stroke="#000000" paint-order="fill stroke markers" d=" M 50.517421875 19.850000000000023 C 50.517421875 14.962279520000038 54.475224243 11 59.357421875 11 C 64.239619507 11 68.197421875 14.962279520000038 68.197421875 19.850000000000023 C 68.197421875 24.737720480000007 64.239619507 28.69999999999999 59.357421875 28.69999999999999 C 54.475224243 28.69999999999999 50.517421875 24.737720480000007 50.517421875 19.850000000000023 Z" stroke-miterlimit="10" stroke-dasharray=""/></g><g><path fill="none" stroke="#000000" paint-order="fill stroke markers" d=" M 59.357421875 28.69999999999999 L 59.357421875 46.30000000000001" stroke-miterlimit="10" stroke-dasharray=""/></g><g><path fill="none" stroke="#000000" paint-order="fill stroke markers" d=" M 49.997421875 35.30000000000001 L 68.717421875 35.30000000000001" stroke-miterlimit="10" stroke-dasharray=""/></g><g><path fill="none" stroke="#000000" paint-order="fill stroke markers" d=" M 59.357421875 46.30000000000001 L 46.357421875 64" stroke-miterlimit="10" stroke-dasharray=""/></g><g><path fill="none" stroke="#000000" paint-order="fill stroke markers" d=" M 59.357421875 46.30000000000001 L 72.357421875 64" stroke-miterlimit="10" stroke-dasharray=""/></g><g><g><path fill="none" stroke="none"/><text fill="#000000" stroke="none" font-family="Arial" font-size="13px" font-style="normal" font-weight="bold" text-decoration="undefined" x="89.857421875" y="360.5" text-anchor="middle" dominant-baseline="central" transform="matrix(1 0 0 1 -30 -282)">User</text></g></g><g><path fill="none" stroke="#000000" paint-order="fill stroke markers" d=" M 270.77724609375 37 C 270.77724609375 26.39613184000001 279.37337793375 17.80000000000001 289.97724609375 17.80000000000001 C 300.58111425375 17.80000000000001 309.17724609375 26.39613184000001 309.17724609375 37 C 309.17724609375 47.60386815999999 300.58111425375 56.19999999999999 289.97724609375 56.19999999999999 C 279.37337793375 56.19999999999999 270.77724609375 47.60386815999999 270.77724609375 37 Z" stroke-miterlimit="10" stroke-dasharray=""/></g><g><path fill="#a1e4fa" stroke="none" paint-order="stroke fill markers" d=" M 271.25724609375 37 C 271.25724609375 26.66122854400004 279.63847463774994 18.28000000000003 289.97724609374995 18.28000000000003 C 300.31601754975 18.28000000000003 308.69724609375 26.66122854400004 308.69724609375 37 C 308.69724609375 47.33877145599996 300.31601754975 55.71999999999997 289.97724609374995 55.71999999999997 C 279.63847463774994 55.71999999999997 271.25724609375 47.33877145599996 271.25724609375 37 Z"/></g><g><path fill="none" stroke="#000000" paint-order="fill stroke markers" d=" M 261.17724609375 17.80000000000001 L 261.17724609375 56.19999999999999" stroke-miterlimit="10" stroke-dasharray=""/></g><g><path fill="none" stroke="#000000" paint-order="fill stroke markers" d=" M 261.17724609375 37 L 270.77724609375 37" stroke-miterlimit="10" stroke-dasharray=""/></g><g><g><path fill="none" stroke="none"/><text fill="#000000" stroke="none" font-family="Arial" font-size="13px" font-style="normal" font-weight="bold" text-decoration="undefined" x="315.67724609375" y="356.5" text-anchor="middle" dominant-baseline="central" transform="matrix(1 0 0 1 -30 -282)">Invoice Form</text><text fill="#000000" stroke="none" font-family="Arial" font-size="13px" font-style="normal" font-weight="bold" text-decoration="undefined" x="315.67724609375" y="369.5" text-anchor="middle" dominant-baseline="central" transform="matrix(1 0 0 1 -30 -282)">(invoiceFrm.fxml)</text></g></g><g><path fill="none" stroke="#000000" paint-order="fill stroke markers" d=" M 109 38 L 226 38" stroke-miterlimit="10" stroke-dasharray=""/></g><g><path fill="none" stroke="#000000" paint-order="fill stroke markers" d=" M 215.83732514237585 42.209517756016 L 226 38 L 215.83732514237585 33.790482243984" stroke-miterlimit="10" stroke-dasharray=""/></g><g><path fill="none" stroke="#000000" paint-order="fill stroke markers" d=" M 689.04541015625 38 C 689.04541015625 28.058873600000027 697.10428375625 20 707.04541015625 20 C 716.98653655625 20 725.04541015625 28.058873600000027 725.04541015625 38 C 725.04541015625 47.94112639999997 716.98653655625 56 707.04541015625 56 C 697.10428375625 56 689.04541015625 47.94112639999997 689.04541015625 38 Z" stroke-miterlimit="10" stroke-dasharray=""/></g><g><path fill="#fce5b2" stroke="none" paint-order="stroke fill markers" d=" M 689.64541015625 38 C 689.64541015625 28.390244480000035 697.43565463625 20.600000000000023 707.04541015625 20.600000000000023 C 716.65516567625 20.600000000000023 724.44541015625 28.390244480000035 724.44541015625 38 C 724.44541015625 47.609755519999965 716.65516567625 55.39999999999998 707.04541015625 55.39999999999998 C 697.43565463625 55.39999999999998 689.64541015625 47.609755519999965 689.64541015625 38 Z"/></g><g><path fill="none" stroke="#000000" paint-order="fill stroke markers" d=" M 707.04541015625 20 L 713.04541015625 14" stroke-miterlimit="10" stroke-dasharray=""/></g><g><path fill="none" stroke="#000000" paint-order="fill stroke markers" d=" M 707.04541015625 20 L 713.04541015625 26" stroke-miterlimit="10" stroke-dasharray=""/></g><g><g><path fill="none" stroke="none"/><text fill="#000000" stroke="none" font-family="Arial" font-size="13px" font-style="normal" font-weight="bold" text-decoration="undefined" x="737.54541015625" y="357.5" text-anchor="middle" dominant-baseline="central" transform="matrix(1 0 0 1 -30 -282)">InvoiceControl</text></g></g><g><path fill="none" stroke="#000000" paint-order="fill stroke markers" d=" M 907.51455078125 270 C 907.51455078125 258.73339008000005 916.64794086125 249.60000000000002 927.91455078125 249.60000000000002 C 939.18116070125 249.60000000000002 948.31455078125 258.73339008000005 948.31455078125 270 C 948.31455078125 281.26660991999995 939.18116070125 290.4 927.91455078125 290.4 C 916.64794086125 290.4 907.51455078125 281.26660991999995 907.51455078125 270 Z" stroke-miterlimit="10" stroke-dasharray=""/></g><g><path fill="#bbf8e7" stroke="none" paint-order="stroke fill markers" d=" M 908.11455078125 270 C 908.11455078125 259.06476096000006 916.9793117412501 250.20000000000005 927.91455078125 250.20000000000005 C 938.8497898212499 250.20000000000005 947.71455078125 259.06476096000006 947.71455078125 270 C 947.71455078125 280.93523903999994 938.8497898212499 289.79999999999995 927.91455078125 289.79999999999995 C 916.9793117412501 289.79999999999995 908.11455078125 280.93523903999994 908.11455078125 270 Z"/></g><g><path fill="none" stroke="#000000" paint-order="fill stroke markers" d=" M 907.51455078125 290.4 L 948.31455078125 290.4" stroke-miterlimit="10" stroke-dasharray=""/></g><g><g><path fill="none" stroke="none"/><text fill="#000000" stroke="none" font-family="Arial" font-size="13px" font-style="normal" font-weight="bold" text-decoration="undefined" x="958.41455078125" y="589.5" text-anchor="middle" dominant-baseline="central" transform="matrix(1 0 0 1 -30 -282)">HoaDon</text></g></g><g><path fill="none" stroke="#000000" paint-order="fill stroke markers" d=" M 491.6 38 C 491.6 27.39613184000001 500.1961318399999 18.80000000000001 510.79999999999995 18.80000000000001 C 521.40386816 18.80000000000001 530 27.39613184000001 530 38 C 530 48.60386815999999 521.40386816 57.19999999999999 510.79999999999995 57.19999999999999 C 500.1961318399999 57.19999999999999 491.6 48.60386815999999 491.6 38 Z" stroke-miterlimit="10" stroke-dasharray=""/></g><g><path fill="#a1e4fa" stroke="none" paint-order="stroke fill markers" d=" M 492.08000000000004 38 C 492.08000000000004 27.66122854400004 500.46122854399994 19.28000000000003 510.79999999999995 19.28000000000003 C 521.138771456 19.28000000000003 529.52 27.66122854400004 529.52 38 C 529.52 48.33877145599996 521.138771456 56.71999999999997 510.79999999999995 56.71999999999997 C 500.46122854399994 56.71999999999997 492.08000000000004 48.33877145599996 492.08000000000004 38 Z"/></g><g><path fill="none" stroke="#000000" paint-order="fill stroke markers" d=" M 482 18.80000000000001 L 482 57.19999999999999" stroke-miterlimit="10" stroke-dasharray=""/></g><g><path fill="none" stroke="#000000" paint-order="fill stroke markers" d=" M 482 38 L 491.6 38" stroke-miterlimit="10" stroke-dasharray=""/></g><g><g><path fill="none" stroke="none"/><text fill="#000000" stroke="none" font-family="Arial" font-size="13px" font-style="normal" font-weight="bold" text-decoration="undefined" x="536.5" y="357.5" text-anchor="middle" dominant-baseline="central" transform="matrix(1 0 0 1 -30 -282)">Invoice Form</text><text fill="#000000" stroke="none" font-family="Arial" font-size="13px" font-style="normal" font-weight="bold" text-decoration="undefined" x="536.5" y="370.5" text-anchor="middle" dominant-baseline="central" transform="matrix(1 0 0 1 -30 -282)">Controller</text></g></g><g><path fill="none" stroke="#000000" paint-order="fill stroke markers" d=" M 344 38 L 458 38" stroke-miterlimit="10" stroke-dasharray=""/></g><g><path fill="none" stroke="#000000" paint-order="fill stroke markers" d=" M 447.83732514237585 42.209517756016 L 458 38 L 447.83732514237585 33.790482243984" stroke-miterlimit="10" stroke-dasharray=""/></g><g><path fill="none" stroke="#000000" paint-order="fill stroke markers" d=" M 554 38 L 654 38" stroke-miterlimit="10" stroke-dasharray=""/></g><g><path fill="none" stroke="#000000" paint-order="fill stroke markers" d=" M 643.8373251423759 42.209517756016 L 654 38 L 643.8373251423758 33.790482243984" stroke-miterlimit="10" stroke-dasharray=""/></g><g><path fill="none" stroke="#000000" paint-order="fill stroke markers" d=" M 692.441796875 266 C 692.441796875 255.39613183999995 701.0379287149999 246.79999999999995 711.641796875 246.79999999999995 C 722.245665035 246.79999999999995 730.841796875 255.39613183999995 730.841796875 266 C 730.841796875 276.60386816000005 722.245665035 285.19999999999993 711.641796875 285.19999999999993 C 701.0379287149999 285.19999999999993 692.441796875 276.60386816000005 692.441796875 266 Z" stroke-miterlimit="10" stroke-dasharray=""/></g><g><path fill="#a1e4fa" stroke="none" paint-order="stroke fill markers" d=" M 692.921796875 266 C 692.921796875 255.66122854399998 701.3030254189999 247.27999999999997 711.641796875 247.27999999999997 C 721.980568331 247.27999999999997 730.361796875 255.66122854399998 730.361796875 266 C 730.361796875 276.338771456 721.980568331 284.7199999999999 711.641796875 284.7199999999999 C 701.3030254189999 284.7199999999999 692.921796875 276.338771456 692.921796875 266 Z"/></g><g><path fill="none" stroke="#000000" paint-order="fill stroke markers" d=" M 682.841796875 246.79999999999995 L 682.841796875 285.19999999999993" stroke-miterlimit="10" stroke-dasharray=""/></g><g><path fill="none" stroke="#000000" paint-order="fill stroke markers" d=" M 682.841796875 266 L 692.441796875 266" stroke-miterlimit="10" stroke-dasharray=""/></g><g><g><path fill="none" stroke="none"/><text fill="#000000" stroke="none" font-family="Arial" font-size="13px" font-style="normal" font-weight="bold" text-decoration="undefined" x="737.341796875" y="585.5" text-anchor="middle" dominant-baseline="central" transform="matrix(1 0 0 1 -30 -282)">InvoiceDAO</text></g></g><g><path fill="none" stroke="#000000" paint-order="fill stroke markers" d=" M 698 87 L 698 242" stroke-miterlimit="10" stroke-dasharray=""/></g><g><path fill="none" stroke="#000000" paint-order="fill stroke markers" d=" M 693.790482243984 231.8373251423759 L 698 242 L 702.209517756016 231.8373251423759" stroke-miterlimit="10" stroke-dasharray=""/></g><g><path fill="none" stroke="#000000" paint-order="fill stroke markers" d=" M 749 262 L 898 262" stroke-miterlimit="10" stroke-dasharray=""/></g><g><path fill="none" stroke="#000000" paint-order="fill stroke markers" d=" M 887.8373251423759 266.209517756016 L 898 262 L 887.8373251423758 257.790482243984" stroke-miterlimit="10" stroke-dasharray=""/></g><g><path fill="none" stroke="#000000" paint-order="fill stroke markers" d=" M 898 281 L 749 281" stroke-miterlimit="10" stroke-dasharray=""/></g><g><path fill="none" stroke="#000000" paint-order="fill stroke markers" d=" M 759.1626748576241 276.790482243984 L 749 281 L 759.1626748576241 285.209517756016" stroke-miterlimit="10" stroke-dasharray=""/></g><g><path fill="none" stroke="#000000" paint-order="fill stroke markers" d=" M 714 242 L 714 87" stroke-miterlimit="10" stroke-dasharray=""/></g><g><path fill="none" stroke="#000000" paint-order="fill stroke markers" d=" M 718.209517756016 97.16267485762415 L 714 87 L 709.790482243984 97.16267485762415" stroke-miterlimit="10" stroke-dasharray=""/></g><g><path fill="none" stroke="#000000" paint-order="fill stroke markers" d=" M 490.550439453125 214 C 490.550439453125 203.39613184 499.1465712931249 194.8 509.75043945312495 194.8 C 520.354307613125 194.8 528.950439453125 203.39613184 528.950439453125 214 C 528.950439453125 224.60386816 520.354307613125 233.20000000000005 509.75043945312495 233.20000000000005 C 499.1465712931249 233.20000000000005 490.550439453125 224.60386816 490.550439453125 214 Z" stroke-miterlimit="10" stroke-dasharray=""/></g><g><path fill="#a1e4fa" stroke="none" paint-order="stroke fill markers" d=" M 491.03043945312504 214 C 491.03043945312504 203.66122854399998 499.41166799712494 195.28000000000003 509.75043945312495 195.28000000000003 C 520.089210909125 195.28000000000003 528.470439453125 203.66122854399998 528.470439453125 214 C 528.470439453125 224.33877145600002 520.089210909125 232.72000000000003 509.75043945312495 232.72000000000003 C 499.41166799712494 232.72000000000003 491.03043945312504 224.33877145600002 491.03043945312504 214 Z"/></g><g><path fill="none" stroke="#000000" paint-order="fill stroke markers" d=" M 480.950439453125 194.8 L 480.950439453125 233.20000000000005" stroke-miterlimit="10" stroke-dasharray=""/></g><g><path fill="none" stroke="#000000" paint-order="fill stroke markers" d=" M 480.950439453125 214 L 490.550439453125 214" stroke-miterlimit="10" stroke-dasharray=""/></g><g><g><path fill="none" stroke="none"/><text fill="#000000" stroke="none" font-family="Arial" font-size="13px" font-style="normal" font-weight="bold" text-decoration="undefined" x="535.450439453125" y="533.5" text-anchor="middle" dominant-baseline="central" transform="matrix(1 0 0 1 -30 -282)">Boundary1</text></g></g></g></svg>