<svg version="1.1" xmlns="http://www.w3.org/2000/svg" xmlns:xlink="http://www.w3.org/1999/xlink" width="472.48876953125" height="313"><defs/><g><g><rect fill="#C0C0C0" stroke="none" x="487" y="223" width="223.35595703125" height="91" transform="matrix(1 0 0 1 -358 -206)" fill-opacity="0.2"/></g><g><rect fill="#ffffff" stroke="none" x="480" y="216" width="223.35595703125" height="91" transform="matrix(1 0 0 1 -358 -206)"/></g><g><path fill="none" stroke="#000000" paint-order="fill stroke markers" d=" M 122 10 L 345.35595703125 10 L 345.35595703125 101 L 122 101 L 122 10 Z Z" stroke-miterlimit="10" stroke-dasharray=""/></g><g><path fill="none" stroke="#000000" paint-order="fill stroke markers" d=" M 122 33 L 345.35595703125 33" stroke-miterlimit="10" stroke-dasharray=""/></g><g><path fill="none" stroke="#000000" paint-order="fill stroke markers" d=" M 150.05908203125 33 L 150.05908203125 101" stroke-miterlimit="10" stroke-dasharray=""/></g><g><path fill="none" stroke="#000000" paint-order="fill stroke markers" d=" M 259.76806640625 33 L 259.76806640625 101" stroke-miterlimit="10" stroke-dasharray=""/></g><g><g><path fill="none" stroke="none"/><text fill="#000000" stroke="none" font-family="Arial" font-size="13px" font-style="normal" font-weight="bold" text-decoration="undefined" x="591.677978515625" y="227.5" text-anchor="middle" dominant-baseline="central" transform="matrix(1 0 0 1 -358 -206)">invoice</text></g></g><g><g><path fill="none" stroke="none"/><text fill="#000000" stroke="none" font-family="Arial" font-size="13px" font-style="normal" font-weight="normal" text-decoration="undefined" x="485" y="244" text-anchor="start" dominant-baseline="text-before-edge" transform="matrix(1 0 0 1 -358 -206)">PK</text></g></g><g><g><path fill="none" stroke="none"/><text fill="#000000" stroke="none" font-family="Arial" font-size="13px" font-style="normal" font-weight="normal" text-decoration="undefined" x="513.05908203125" y="244" text-anchor="start" dominant-baseline="text-before-edge" transform="matrix(1 0 0 1 -358 -206)">invoice_id</text></g></g><g><g><path fill="none" stroke="none"/><text fill="#000000" stroke="none" font-family="Arial" font-size="13px" font-style="normal" font-weight="normal" text-decoration="undefined" x="622.76806640625" y="244" text-anchor="start" dominant-baseline="text-before-edge" transform="matrix(1 0 0 1 -358 -206)">VARCHAR</text></g></g><g><g><path fill="none" stroke="none"/><text fill="#000000" stroke="none" font-family="Arial" font-size="13px" font-style="normal" font-weight="normal" text-decoration="undefined" x="485" y="250.5" text-anchor="start" dominant-baseline="central" transform="matrix(1 0 0 1 -358 -206)"></text></g></g><g><g><path fill="none" stroke="none"/><text fill="#000000" stroke="none" font-family="Arial" font-size="13px" font-style="normal" font-weight="normal" text-decoration="undefined" x="485" y="259" text-anchor="start" dominant-baseline="text-before-edge" transform="matrix(1 0 0 1 -358 -206)"></text></g></g><g><g><path fill="none" stroke="none"/><text fill="#000000" stroke="none" font-family="Arial" font-size="13px" font-style="normal" font-weight="normal" text-decoration="undefined" x="513.05908203125" y="259" text-anchor="start" dominant-baseline="text-before-edge" transform="matrix(1 0 0 1 -358 -206)">room_id</text></g></g><g><g><path fill="none" stroke="none"/><text fill="#000000" stroke="none" font-family="Arial" font-size="13px" font-style="normal" font-weight="normal" text-decoration="undefined" x="622.76806640625" y="259" text-anchor="start" dominant-baseline="text-before-edge" transform="matrix(1 0 0 1 -358 -206)">VARCHAR</text></g></g><g><g><path fill="none" stroke="none"/><text fill="#000000" stroke="none" font-family="Arial" font-size="13px" font-style="normal" font-weight="normal" text-decoration="undefined" x="485" y="265.5" text-anchor="start" dominant-baseline="central" transform="matrix(1 0 0 1 -358 -206)"></text></g></g><g><g><path fill="none" stroke="none"/><text fill="#000000" stroke="none" font-family="Arial" font-size="13px" font-style="normal" font-weight="normal" text-decoration="undefined" x="485" y="274" text-anchor="start" dominant-baseline="text-before-edge" transform="matrix(1 0 0 1 -358 -206)"></text></g></g><g><g><path fill="none" stroke="none"/><text fill="#000000" stroke="none" font-family="Arial" font-size="13px" font-style="normal" font-weight="normal" text-decoration="undefined" x="513.05908203125" y="274" text-anchor="start" dominant-baseline="text-before-edge" transform="matrix(1 0 0 1 -358 -206)">customer_name</text></g></g><g><g><path fill="none" stroke="none"/><text fill="#000000" stroke="none" font-family="Arial" font-size="13px" font-style="normal" font-weight="normal" text-decoration="undefined" x="622.76806640625" y="274" text-anchor="start" dominant-baseline="text-before-edge" transform="matrix(1 0 0 1 -358 -206)">VARCHAR</text></g></g><g><g><path fill="none" stroke="none"/><text fill="#000000" stroke="none" font-family="Arial" font-size="13px" font-style="normal" font-weight="normal" text-decoration="undefined" x="485" y="280.5" text-anchor="start" dominant-baseline="central" transform="matrix(1 0 0 1 -358 -206)"></text></g></g><g><g><path fill="none" stroke="none"/><text fill="#000000" stroke="none" font-family="Arial" font-size="13px" font-style="normal" font-weight="normal" text-decoration="undefined" x="485" y="289" text-anchor="start" dominant-baseline="text-before-edge" transform="matrix(1 0 0 1 -358 -206)"></text></g></g><g><g><path fill="none" stroke="none"/><text fill="#000000" stroke="none" font-family="Arial" font-size="13px" font-style="normal" font-weight="normal" text-decoration="undefined" x="513.05908203125" y="289" text-anchor="start" dominant-baseline="text-before-edge" transform="matrix(1 0 0 1 -358 -206)">billed_date</text></g></g><g><g><path fill="none" stroke="none"/><text fill="#000000" stroke="none" font-family="Arial" font-size="13px" font-style="normal" font-weight="normal" text-decoration="undefined" x="622.76806640625" y="289" text-anchor="start" dominant-baseline="text-before-edge" transform="matrix(1 0 0 1 -358 -206)">TIMESTAMP</text></g></g><g><g><path fill="none" stroke="none"/><text fill="#000000" stroke="none" font-family="Arial" font-size="13px" font-style="normal" font-weight="normal" text-decoration="undefined" x="485" y="295.5" text-anchor="start" dominant-baseline="central" transform="matrix(1 0 0 1 -358 -206)"></text></g></g><g><rect fill="#C0C0C0" stroke="none" x="375" y="455" width="211.77783203125" height="61" transform="matrix(1 0 0 1 -358 -206)" fill-opacity="0.2"/></g><g><rect fill="#ffffff" stroke="none" x="368" y="448" width="211.77783203125" height="61" transform="matrix(1 0 0 1 -358 -206)"/></g><g><path fill="none" stroke="#000000" paint-order="fill stroke markers" d=" M 10 242 L 221.77783203125 242 L 221.77783203125 303 L 10 303 L 10 242 Z Z" stroke-miterlimit="10" stroke-dasharray=""/></g><g><path fill="none" stroke="#000000" paint-order="fill stroke markers" d=" M 10 265 L 221.77783203125 265" stroke-miterlimit="10" stroke-dasharray=""/></g><g><path fill="none" stroke="#000000" paint-order="fill stroke markers" d=" M 59 265 L 59 303" stroke-miterlimit="10" stroke-dasharray=""/></g><g><path fill="none" stroke="#000000" paint-order="fill stroke markers" d=" M 147.74267578125 265 L 147.74267578125 303" stroke-miterlimit="10" stroke-dasharray=""/></g><g><g><path fill="none" stroke="none"/><text fill="#000000" stroke="none" font-family="Arial" font-size="13px" font-style="normal" font-weight="bold" text-decoration="undefined" x="473.888916015625" y="459.5" text-anchor="middle" dominant-baseline="central" transform="matrix(1 0 0 1 -358 -206)">invoice_daily</text></g></g><g><g><path fill="none" stroke="none"/><text fill="#000000" stroke="none" font-family="Arial" font-size="13px" font-style="normal" font-weight="normal" text-decoration="undefined" x="373" y="476" text-anchor="start" dominant-baseline="text-before-edge" transform="matrix(1 0 0 1 -358 -206)">PK,FK</text></g></g><g><g><path fill="none" stroke="none"/><text fill="#000000" stroke="none" font-family="Arial" font-size="13px" font-style="normal" font-weight="normal" text-decoration="undefined" x="422" y="476" text-anchor="start" dominant-baseline="text-before-edge" transform="matrix(1 0 0 1 -358 -206)">invoice_id</text></g></g><g><g><path fill="none" stroke="none"/><text fill="#000000" stroke="none" font-family="Arial" font-size="13px" font-style="normal" font-weight="normal" text-decoration="undefined" x="510.74267578125" y="476" text-anchor="start" dominant-baseline="text-before-edge" transform="matrix(1 0 0 1 -358 -206)">VARCHAR</text></g></g><g><g><path fill="none" stroke="none"/><text fill="#000000" stroke="none" font-family="Arial" font-size="13px" font-style="normal" font-weight="normal" text-decoration="undefined" x="373" y="482.5" text-anchor="start" dominant-baseline="central" transform="matrix(1 0 0 1 -358 -206)"></text></g></g><g><g><path fill="none" stroke="none"/><text fill="#000000" stroke="none" font-family="Arial" font-size="13px" font-style="normal" font-weight="normal" text-decoration="undefined" x="373" y="491" text-anchor="start" dominant-baseline="text-before-edge" transform="matrix(1 0 0 1 -358 -206)"></text></g></g><g><g><path fill="none" stroke="none"/><text fill="#000000" stroke="none" font-family="Arial" font-size="13px" font-style="normal" font-weight="normal" text-decoration="undefined" x="422" y="491" text-anchor="start" dominant-baseline="text-before-edge" transform="matrix(1 0 0 1 -358 -206)">rental_hours</text></g></g><g><g><path fill="none" stroke="none"/><text fill="#000000" stroke="none" font-family="Arial" font-size="13px" font-style="normal" font-weight="normal" text-decoration="undefined" x="510.74267578125" y="491" text-anchor="start" dominant-baseline="text-before-edge" transform="matrix(1 0 0 1 -358 -206)">BIGINT</text></g></g><g><g><path fill="none" stroke="none"/><text fill="#000000" stroke="none" font-family="Arial" font-size="13px" font-style="normal" font-weight="normal" text-decoration="undefined" x="373" y="497.5" text-anchor="start" dominant-baseline="central" transform="matrix(1 0 0 1 -358 -206)"></text></g></g><g><rect fill="#C0C0C0" stroke="none" x="615" y="455" width="212.48876953125" height="61" transform="matrix(1 0 0 1 -358 -206)" fill-opacity="0.2"/></g><g><rect fill="#ffffff" stroke="none" x="608" y="448" width="212.48876953125" height="61" transform="matrix(1 0 0 1 -358 -206)"/></g><g><path fill="none" stroke="#000000" paint-order="fill stroke markers" d=" M 250 242 L 462.48876953125 242 L 462.48876953125 303 L 250 303 L 250 242 Z Z" stroke-miterlimit="10" stroke-dasharray=""/></g><g><path fill="none" stroke="#000000" paint-order="fill stroke markers" d=" M 250 265 L 462.48876953125 265" stroke-miterlimit="10" stroke-dasharray=""/></g><g><path fill="none" stroke="#000000" paint-order="fill stroke markers" d=" M 299 265 L 299 303" stroke-miterlimit="10" stroke-dasharray=""/></g><g><path fill="none" stroke="#000000" paint-order="fill stroke markers" d=" M 381.26171875 265 L 381.26171875 303" stroke-miterlimit="10" stroke-dasharray=""/></g><g><g><path fill="none" stroke="none"/><text fill="#000000" stroke="none" font-family="Arial" font-size="13px" font-style="normal" font-weight="bold" text-decoration="undefined" x="714.244384765625" y="459.5" text-anchor="middle" dominant-baseline="central" transform="matrix(1 0 0 1 -358 -206)">invoice_hourly</text></g></g><g><g><path fill="none" stroke="none"/><text fill="#000000" stroke="none" font-family="Arial" font-size="13px" font-style="normal" font-weight="normal" text-decoration="undefined" x="613" y="476" text-anchor="start" dominant-baseline="text-before-edge" transform="matrix(1 0 0 1 -358 -206)">PK,FK</text></g></g><g><g><path fill="none" stroke="none"/><text fill="#000000" stroke="none" font-family="Arial" font-size="13px" font-style="normal" font-weight="normal" text-decoration="undefined" x="662" y="476" text-anchor="start" dominant-baseline="text-before-edge" transform="matrix(1 0 0 1 -358 -206)">invoice_id</text></g></g><g><g><path fill="none" stroke="none"/><text fill="#000000" stroke="none" font-family="Arial" font-size="13px" font-style="normal" font-weight="normal" text-decoration="undefined" x="744.26171875" y="476" text-anchor="start" dominant-baseline="text-before-edge" transform="matrix(1 0 0 1 -358 -206)">VARCHAR</text></g></g><g><g><path fill="none" stroke="none"/><text fill="#000000" stroke="none" font-family="Arial" font-size="13px" font-style="normal" font-weight="normal" text-decoration="undefined" x="613" y="482.5" text-anchor="start" dominant-baseline="central" transform="matrix(1 0 0 1 -358 -206)"></text></g></g><g><g><path fill="none" stroke="none"/><text fill="#000000" stroke="none" font-family="Arial" font-size="13px" font-style="normal" font-weight="normal" text-decoration="undefined" x="613" y="491" text-anchor="start" dominant-baseline="text-before-edge" transform="matrix(1 0 0 1 -358 -206)"></text></g></g><g><g><path fill="none" stroke="none"/><text fill="#000000" stroke="none" font-family="Arial" font-size="13px" font-style="normal" font-weight="normal" text-decoration="undefined" x="662" y="491" text-anchor="start" dominant-baseline="text-before-edge" transform="matrix(1 0 0 1 -358 -206)">rental_days</text></g></g><g><g><path fill="none" stroke="none"/><text fill="#000000" stroke="none" font-family="Arial" font-size="13px" font-style="normal" font-weight="normal" text-decoration="undefined" x="744.26171875" y="491" text-anchor="start" dominant-baseline="text-before-edge" transform="matrix(1 0 0 1 -358 -206)">BIGINT</text></g></g><g><g><path fill="none" stroke="none"/><text fill="#000000" stroke="none" font-family="Arial" font-size="13px" font-style="normal" font-weight="normal" text-decoration="undefined" x="613" y="497.5" text-anchor="start" dominant-baseline="central" transform="matrix(1 0 0 1 -358 -206)"></text></g></g><g><path fill="none" stroke="#000000" paint-order="fill stroke markers" d=" M 162 101 L 162 242" stroke-miterlimit="10" stroke-dasharray=""/></g><g><path fill="none" stroke="#000000" paint-order="fill stroke markers" d=" M 155 235 L 169 235" stroke-miterlimit="10" stroke-dasharray=""/></g><g><path fill="none" stroke="#000000" paint-order="fill stroke markers" d=" M 155 228 L 169 228" stroke-miterlimit="10" stroke-dasharray=""/></g><g><path fill="none" stroke="#000000" paint-order="fill stroke markers" d=" M 169 108 L 155 108" stroke-miterlimit="10" stroke-dasharray=""/></g><g><path fill="none" stroke="#000000" paint-order="fill stroke markers" d=" M 169 115 L 155 115" stroke-miterlimit="10" stroke-dasharray=""/></g><g><rect fill="#ffffff" stroke="none" x="535" y="326" width="0" height="13" transform="matrix(1 0 0 1 -358 -206)"/></g><g><g><path fill="none" stroke="none"/><text fill="#000000" stroke="none" font-family="Arial" font-size="13px" font-style="normal" font-weight="normal" text-decoration="undefined" x="535" y="332.5" text-anchor="middle" dominant-baseline="central" transform="matrix(1 0 0 1 -358 -206)"></text></g></g><g><rect fill="#ffffff" stroke="none" x="535" y="416" width="0" height="13" transform="matrix(1 0 0 1 -358 -206)"/></g><g><g><path fill="none" stroke="none"/><text fill="#000000" stroke="none" font-family="Arial" font-size="13px" font-style="normal" font-weight="normal" text-decoration="undefined" x="535" y="422.5" text-anchor="middle" dominant-baseline="central" transform="matrix(1 0 0 1 -358 -206)"></text></g></g><g><path fill="none" stroke="#000000" paint-order="fill stroke markers" d=" M 314 101 L 314 242" stroke-miterlimit="10" stroke-dasharray=""/></g><g><path fill="none" stroke="#000000" paint-order="fill stroke markers" d=" M 307 235 L 321 235" stroke-miterlimit="10" stroke-dasharray=""/></g><g><path fill="none" stroke="#000000" paint-order="fill stroke markers" d=" M 307 228 L 321 228" stroke-miterlimit="10" stroke-dasharray=""/></g><g><path fill="none" stroke="#000000" paint-order="fill stroke markers" d=" M 321 108 L 307 108" stroke-miterlimit="10" stroke-dasharray=""/></g><g><path fill="none" stroke="#000000" paint-order="fill stroke markers" d=" M 321 115 L 307 115" stroke-miterlimit="10" stroke-dasharray=""/></g><g><rect fill="#ffffff" stroke="none" x="687" y="326" width="0" height="13" transform="matrix(1 0 0 1 -358 -206)"/></g><g><g><path fill="none" stroke="none"/><text fill="#000000" stroke="none" font-family="Arial" font-size="13px" font-style="normal" font-weight="normal" text-decoration="undefined" x="687" y="332.5" text-anchor="middle" dominant-baseline="central" transform="matrix(1 0 0 1 -358 -206)"></text></g></g><g><rect fill="#ffffff" stroke="none" x="687" y="416" width="0" height="13" transform="matrix(1 0 0 1 -358 -206)"/></g><g><g><path fill="none" stroke="none"/><text fill="#000000" stroke="none" font-family="Arial" font-size="13px" font-style="normal" font-weight="normal" text-decoration="undefined" x="687" y="422.5" text-anchor="middle" dominant-baseline="central" transform="matrix(1 0 0 1 -358 -206)"></text></g></g></g></svg>