<svg version="1.1" xmlns="http://www.w3.org/2000/svg" xmlns:xlink="http://www.w3.org/1999/xlink" width="286.16259765625" height="244"><defs/><g><g><rect fill="#C0C0C0" stroke="none" x="219" y="87" width="79.380859375" height="36" transform="matrix(1 0 0 1 -18 -14)" fill-opacity="0.2"/></g><g><rect fill="#FFFFFF" stroke="none" x="212" y="80" width="79.380859375" height="36" transform="matrix(1 0 0 1 -18 -14)"/></g><g><path fill="none" stroke="#000000" paint-order="fill stroke markers" d=" M 194 66 L 273.380859375 66 L 273.380859375 102 L 194 102 L 194 66 Z Z" stroke-miterlimit="10" stroke-dasharray=""/></g><g><g><path fill="none" stroke="none"/><text fill="#000000" stroke="none" font-family="Arial" font-size="12px" font-style="normal" font-weight="normal" text-decoration="undefined" x="252.1904296875" y="91" text-anchor="middle" dominant-baseline="central" transform="matrix(1 0 0 1 -18 -14)">«stereotype»</text></g></g><g><g><path fill="none" stroke="none"/><text fill="#000000" stroke="none" font-family="Arial" font-size="12px" font-style="normal" font-weight="bold" text-decoration="undefined" x="252.1904296875" y="105" text-anchor="middle" dominant-baseline="central" transform="matrix(1 0 0 1 -18 -14)">entity</text></g></g><g><rect fill="#C0C0C0" stroke="none" x="35" y="35" width="89" height="220" transform="matrix(1 0 0 1 -18 -14)" fill-opacity="0.2"/></g><g><rect fill="#e2e2e2" stroke="none" x="28" y="28" width="89" height="220" transform="matrix(1 0 0 1 -18 -14)"/></g><g><path fill="none" stroke="#000000" paint-order="fill stroke markers" d=" M 10 14 L 99 14 L 99 234 L 10 234 L 10 14 Z Z" stroke-miterlimit="10" stroke-dasharray=""/></g><g><g><path fill="none" stroke="none"/><text fill="#000000" stroke="none" font-family="Arial" font-size="12px" font-style="normal" font-weight="normal" text-decoration="undefined" x="73" y="39" text-anchor="middle" dominant-baseline="central" transform="matrix(1 0 0 1 -18 -14)">«metaClass»</text></g></g><g><g><path fill="none" stroke="none"/><text fill="#000000" stroke="none" font-family="Arial" font-size="12px" font-style="normal" font-weight="bold" text-decoration="undefined" x="73" y="53" text-anchor="middle" dominant-baseline="central" transform="matrix(1 0 0 1 -18 -14)">UMLClass</text></g></g><g><path fill="none" stroke="#000000" paint-order="fill stroke markers" d=" M 194 86 L 99 86" stroke-miterlimit="10" stroke-dasharray=""/></g><g><path fill="#000000" stroke="none" paint-order="stroke fill markers" d=" M 109.16267485762415 81.79048224398402 L 99 86 L 109.16267485762415 90.20951775601598"/></g><g><path fill="none" stroke="#000000" paint-order="fill stroke markers" d=" M 109.16267485762415 81.79048224398402 L 99 86 L 109.16267485762415 90.20951775601598 L 109.16267485762415 81.79048224398402" stroke-miterlimit="10" stroke-dasharray=""/></g><g><rect fill="#C0C0C0" stroke="none" x="219" y="31" width="81" height="37" transform="matrix(1 0 0 1 -18 -14)" fill-opacity="0.2"/></g><g><rect fill="#FFFFFF" stroke="none" x="212" y="24" width="81" height="37" transform="matrix(1 0 0 1 -18 -14)"/></g><g><path fill="none" stroke="#000000" paint-order="fill stroke markers" d=" M 194 10 L 275 10 L 275 47 L 194 47 L 194 10 Z Z" stroke-miterlimit="10" stroke-dasharray=""/></g><g><g><path fill="none" stroke="none"/><text fill="#000000" stroke="none" font-family="Arial" font-size="12px" font-style="normal" font-weight="normal" text-decoration="undefined" x="253" y="35" text-anchor="middle" dominant-baseline="central" transform="matrix(1 0 0 1 -18 -14)">«stereotype»</text></g></g><g><g><path fill="none" stroke="none"/><text fill="#000000" stroke="none" font-family="Arial" font-size="12px" font-style="normal" font-weight="bold" text-decoration="undefined" x="253" y="49" text-anchor="middle" dominant-baseline="central" transform="matrix(1 0 0 1 -18 -14)">control</text></g></g><g><path fill="none" stroke="#000000" paint-order="fill stroke markers" d=" M 194 38 L 99 38" stroke-miterlimit="10" stroke-dasharray=""/></g><g><path fill="#000000" stroke="none" paint-order="stroke fill markers" d=" M 109.16267485762415 33.790482243984016 L 99 38 L 109.16267485762415 42.209517756015984"/></g><g><path fill="none" stroke="#000000" paint-order="fill stroke markers" d=" M 109.16267485762415 33.790482243984016 L 99 38 L 109.16267485762415 42.209517756015984 L 109.16267485762415 33.790482243984016" stroke-miterlimit="10" stroke-dasharray=""/></g><g><rect fill="#C0C0C0" stroke="none" x="219" y="143" width="81" height="36" transform="matrix(1 0 0 1 -18 -14)" fill-opacity="0.2"/></g><g><rect fill="#FFFFFF" stroke="none" x="212" y="136" width="81" height="36" transform="matrix(1 0 0 1 -18 -14)"/></g><g><path fill="none" stroke="#000000" paint-order="fill stroke markers" d=" M 194 122 L 275 122 L 275 158 L 194 158 L 194 122 Z Z" stroke-miterlimit="10" stroke-dasharray=""/></g><g><g><path fill="none" stroke="none"/><text fill="#000000" stroke="none" font-family="Arial" font-size="12px" font-style="normal" font-weight="normal" text-decoration="undefined" x="253" y="147" text-anchor="middle" dominant-baseline="central" transform="matrix(1 0 0 1 -18 -14)">«stereotype»</text></g></g><g><g><path fill="none" stroke="none"/><text fill="#000000" stroke="none" font-family="Arial" font-size="12px" font-style="normal" font-weight="bold" text-decoration="undefined" x="253" y="161" text-anchor="middle" dominant-baseline="central" transform="matrix(1 0 0 1 -18 -14)">boundary</text></g></g><g><path fill="none" stroke="#000000" paint-order="fill stroke markers" d=" M 194 142 L 99 142" stroke-miterlimit="10" stroke-dasharray=""/></g><g><path fill="#000000" stroke="none" paint-order="stroke fill markers" d=" M 109.16267485762415 137.790482243984 L 99 142 L 109.16267485762415 146.209517756016"/></g><g><path fill="none" stroke="#000000" paint-order="fill stroke markers" d=" M 109.16267485762415 137.790482243984 L 99 142 L 109.16267485762415 146.209517756016 L 109.16267485762415 137.790482243984" stroke-miterlimit="10" stroke-dasharray=""/></g><g><rect fill="#C0C0C0" stroke="none" x="215" y="207" width="85.16259765625" height="38" transform="matrix(1 0 0 1 -18 -14)" fill-opacity="0.2"/></g><g><rect fill="#ffffff" stroke="none" x="208" y="200" width="85.16259765625" height="38" transform="matrix(1 0 0 1 -18 -14)"/></g><g><path fill="none" stroke="#000000" paint-order="fill stroke markers" d=" M 190 186 L 275.16259765625 186 L 275.16259765625 224 L 190 224 L 190 186 Z Z" stroke-miterlimit="10" stroke-dasharray=""/></g><g><g><path fill="none" stroke="none"/><text fill="#000000" stroke="none" font-family="Arial" font-size="13px" font-style="normal" font-weight="normal" text-decoration="undefined" x="251.081298828125" y="211.5" text-anchor="middle" dominant-baseline="central" transform="matrix(1 0 0 1 -18 -14)">«stereotype»</text></g></g><g><g><path fill="none" stroke="none"/><text fill="#000000" stroke="none" font-family="Arial" font-size="13px" font-style="normal" font-weight="bold" text-decoration="undefined" x="251.081298828125" y="226.5" text-anchor="middle" dominant-baseline="central" transform="matrix(1 0 0 1 -18 -14)">uc_input</text></g></g><g><path fill="none" stroke="#000000" paint-order="fill stroke markers" d=" M 190 205 L 99 205" stroke-miterlimit="10" stroke-dasharray=""/></g><g><path fill="#000000" stroke="none" paint-order="stroke fill markers" d=" M 109.16267485762415 200.790482243984 L 99 205 L 109.16267485762415 209.209517756016"/></g><g><path fill="none" stroke="#000000" paint-order="fill stroke markers" d=" M 109.16267485762415 200.790482243984 L 99 205 L 109.16267485762415 209.209517756016 L 109.16267485762415 200.790482243984" stroke-miterlimit="10" stroke-dasharray=""/></g></g></svg>