<svg version="1.1" xmlns="http://www.w3.org/2000/svg" xmlns:xlink="http://www.w3.org/1999/xlink" width="1163.80810546875" height="779"><defs/><g><g><rect fill="#C0C0C0" stroke="none" x="335" y="95" width="320" height="408" transform="matrix(1 0 0 1 317 273)" fill-opacity="0.2"/></g><g><rect fill="#ffffff" stroke="none" x="328" y="88" width="320" height="408" transform="matrix(1 0 0 1 317 273)"/></g><g><path fill="none" stroke="#000000" paint-order="fill stroke markers" d=" M 645 361 L 965 361 L 965 769 L 645 769 L 645 361 Z Z" stroke-miterlimit="10" stroke-dasharray=""/></g><g><g><path fill="none" stroke="none"/><text fill="#000000" stroke="none" font-family="Arial" font-size="13px" font-style="normal" font-weight="bold" text-decoration="undefined" x="488.5" y="101.5" text-anchor="middle" dominant-baseline="central" transform="matrix(1 0 0 1 317 273)">QuanLyKhachSan</text></g></g><g><path fill="#C0C0C0" stroke="none" paint-order="stroke fill markers" d=" M 728 481.5 C 728 471.835016 761.8024975999999 464 803.5 464 C 845.1975024 464 879 471.835016 879 481.5 C 879 491.164984 845.1975024 499 803.5 499 C 761.8024975999999 499 728 491.164984 728 481.5 Z" fill-opacity="0.2"/></g><g><path fill="#ffffff" stroke="none" paint-order="stroke fill markers" d=" M 721 474.5 C 721 464.835016 754.8024975999999 457 796.5 457 C 838.1975024 457 872 464.835016 872 474.5 C 872 484.164984 838.1975024 492 796.5 492 C 754.8024975999999 492 721 484.164984 721 474.5 Z"/></g><g><path fill="none" stroke="#000000" paint-order="fill stroke markers" d=" M 721 474.5 C 721 464.835016 754.8024975999999 457 796.5 457 C 838.1975024 457 872 464.835016 872 474.5 C 872 484.164984 838.1975024 492 796.5 492 C 754.8024975999999 492 721 484.164984 721 474.5 Z" stroke-miterlimit="10" stroke-dasharray=""/></g><g><g><path fill="none" stroke="none"/><text fill="#000000" stroke="none" font-family="Arial" font-size="13px" font-style="normal" font-weight="bold" text-decoration="undefined" x="479.5" y="202.5" text-anchor="middle" dominant-baseline="central" transform="matrix(1 0 0 1 317 273)">Manage Invoice</text></g></g><g><path fill="#C0C0C0" stroke="none" paint-order="stroke fill markers" d=" M 712 642.5 C 712 627.8644528 753.1897984 616 804 616 C 854.8102016 616 896 627.8644528 896 642.5 C 896 657.1355472 854.8102016 669 804 669 C 753.1897984 669 712 657.1355472 712 642.5 Z" fill-opacity="0.2"/></g><g><path fill="#ffffff" stroke="none" paint-order="stroke fill markers" d=" M 705 635.5 C 705 620.8644528 746.1897984 609 797 609 C 847.8102016 609 889 620.8644528 889 635.5 C 889 650.1355472 847.8102016 662 797 662 C 746.1897984 662 705 650.1355472 705 635.5 Z"/></g><g><path fill="none" stroke="#000000" paint-order="fill stroke markers" d=" M 705 635.5 C 705 620.8644528 746.1897984 609 797 609 C 847.8102016 609 889 620.8644528 889 635.5 C 889 650.1355472 847.8102016 662 797 662 C 746.1897984 662 705 650.1355472 705 635.5 Z" stroke-miterlimit="10" stroke-dasharray=""/></g><g><g><path fill="none" stroke="none"/><text fill="#000000" stroke="none" font-family="Arial" font-size="13px" font-style="normal" font-weight="bold" text-decoration="undefined" x="480" y="357" text-anchor="middle" dominant-baseline="central" transform="matrix(1 0 0 1 317 273)">Calculate quantity</text><text fill="#000000" stroke="none" font-family="Arial" font-size="13px" font-style="normal" font-weight="bold" text-decoration="undefined" x="480" y="370" text-anchor="middle" dominant-baseline="central" transform="matrix(1 0 0 1 317 273)">of invoices</text></g></g><g><path fill="#C0C0C0" stroke="none" paint-order="stroke fill markers" d=" M 714 722.5 C 714 707.8644528 754.2943680000001 696 804 696 C 853.705632 696 894 707.8644528 894 722.5 C 894 737.1355472 853.705632 749 804 749 C 754.2943680000001 749 714 737.1355472 714 722.5 Z" fill-opacity="0.2"/></g><g><path fill="#ffffff" stroke="none" paint-order="stroke fill markers" d=" M 707 715.5 C 707 700.8644528 747.2943680000001 689 797 689 C 846.705632 689 887 700.8644528 887 715.5 C 887 730.1355472 846.705632 742 797 742 C 747.2943680000001 742 707 730.1355472 707 715.5 Z"/></g><g><path fill="none" stroke="#000000" paint-order="fill stroke markers" d=" M 707 715.5 C 707 700.8644528 747.2943680000001 689 797 689 C 846.705632 689 887 700.8644528 887 715.5 C 887 730.1355472 846.705632 742 797 742 C 747.2943680000001 742 707 730.1355472 707 715.5 Z" stroke-miterlimit="10" stroke-dasharray=""/></g><g><g><path fill="none" stroke="none"/><text fill="#000000" stroke="none" font-family="Arial" font-size="13px" font-style="normal" font-weight="bold" text-decoration="undefined" x="480" y="437" text-anchor="middle" dominant-baseline="central" transform="matrix(1 0 0 1 317 273)">Calculate average</text><text fill="#000000" stroke="none" font-family="Arial" font-size="13px" font-style="normal" font-weight="bold" text-decoration="undefined" x="480" y="450" text-anchor="middle" dominant-baseline="central" transform="matrix(1 0 0 1 317 273)">total of invoices</text></g></g><g><path fill="#C0C0C0" stroke="none" paint-order="stroke fill markers" d=" M 736 562.5 C 736 547.8644528 766.4446336 536 804 536 C 841.5553664 536 872 547.8644528 872 562.5 C 872 577.1355472 841.5553664 589 804 589 C 766.4446336 589 736 577.1355472 736 562.5 Z" fill-opacity="0.2"/></g><g><path fill="#ffffff" stroke="none" paint-order="stroke fill markers" d=" M 729 555.5 C 729 540.8644528 759.4446336 529 797 529 C 834.5553664 529 865 540.8644528 865 555.5 C 865 570.1355472 834.5553664 582 797 582 C 759.4446336 582 729 570.1355472 729 555.5 Z"/></g><g><path fill="none" stroke="#000000" paint-order="fill stroke markers" d=" M 729 555.5 C 729 540.8644528 759.4446336 529 797 529 C 834.5553664 529 865 540.8644528 865 555.5 C 865 570.1355472 834.5553664 582 797 582 C 759.4446336 582 729 570.1355472 729 555.5 Z" stroke-miterlimit="10" stroke-dasharray=""/></g><g><g><path fill="none" stroke="none"/><text fill="#000000" stroke="none" font-family="Arial" font-size="13px" font-style="normal" font-weight="bold" text-decoration="undefined" x="480" y="277" text-anchor="middle" dominant-baseline="central" transform="matrix(1 0 0 1 317 273)">View invoice</text><text fill="#000000" stroke="none" font-family="Arial" font-size="13px" font-style="normal" font-weight="bold" text-decoration="undefined" x="480" y="290" text-anchor="middle" dominant-baseline="central" transform="matrix(1 0 0 1 317 273)">list</text></g></g><g><path fill="#ffffff" stroke="none" paint-order="stroke fill markers" d=" M 717 393 L 866 393 L 876 403 L 876 432 L 717 432 L 717 393"/></g><g><path fill="none" stroke="#000000" paint-order="fill stroke markers" d=" M 717 393 L 866 393 L 876 403 L 876 432 L 717 432 L 717 393 L 717 393" stroke-miterlimit="10" stroke-dasharray=""/></g><g><path fill="none" stroke="#000000" paint-order="fill stroke markers" d=" M 866 393 L 866 403 L 876 403 L 866 393" stroke-miterlimit="10" stroke-dasharray=""/></g><g><g><path fill="none" stroke="none"/><text fill="#000000" stroke="none" font-family="Arial" font-size="13px" font-style="normal" font-weight="normal" text-decoration="undefined" x="405" y="125" text-anchor="start" dominant-baseline="text-before-edge" transform="matrix(1 0 0 1 317 273)">Create/Update/Delete</text></g></g><g><path fill="none" stroke="#000000" paint-order="fill stroke markers" d=" M 797 457 L 797 433" stroke-miterlimit="10" stroke-dasharray="3"/></g><g><path fill="#ffffff" stroke="none" paint-order="stroke fill markers" d=" M 507.61361328124997 578.85 C 507.61361328124997 573.96227952 511.57141564924996 570 516.45361328125 570 C 521.33581091325 570 525.29361328125 573.96227952 525.29361328125 578.85 C 525.29361328125 583.73772048 521.33581091325 587.7 516.45361328125 587.7 C 511.57141564924996 587.7 507.61361328124997 583.73772048 507.61361328124997 578.85 Z"/></g><g><path fill="none" stroke="#000000" paint-order="fill stroke markers" d=" M 507.61361328124997 578.85 C 507.61361328124997 573.96227952 511.57141564924996 570 516.45361328125 570 C 521.33581091325 570 525.29361328125 573.96227952 525.29361328125 578.85 C 525.29361328125 583.73772048 521.33581091325 587.7 516.45361328125 587.7 C 511.57141564924996 587.7 507.61361328124997 583.73772048 507.61361328124997 578.85 Z" stroke-miterlimit="10" stroke-dasharray=""/></g><g><path fill="none" stroke="#000000" paint-order="fill stroke markers" d=" M 516.45361328125 587.7 L 516.45361328125 605.3" stroke-miterlimit="10" stroke-dasharray=""/></g><g><path fill="none" stroke="#000000" paint-order="fill stroke markers" d=" M 507.09361328125 594.3 L 525.81361328125 594.3" stroke-miterlimit="10" stroke-dasharray=""/></g><g><path fill="none" stroke="#000000" paint-order="fill stroke markers" d=" M 516.45361328125 605.3 L 503.45361328125 623" stroke-miterlimit="10" stroke-dasharray=""/></g><g><path fill="none" stroke="#000000" paint-order="fill stroke markers" d=" M 516.45361328125 605.3 L 529.45361328125 623" stroke-miterlimit="10" stroke-dasharray=""/></g><g><g><path fill="none" stroke="none"/><text fill="#000000" stroke="none" font-family="Arial" font-size="13px" font-style="normal" font-weight="bold" text-decoration="undefined" x="199.95361328125" y="364.5" text-anchor="middle" dominant-baseline="central" transform="matrix(1 0 0 1 317 273)">User</text></g></g><g><path fill="none" stroke="#000000" paint-order="fill stroke markers" d=" M 537 611 L 704 626" stroke-miterlimit="10" stroke-dasharray=""/></g><g><path fill="none" stroke="#000000" paint-order="fill stroke markers" d=" M 537 617 L 725 688" stroke-miterlimit="10" stroke-dasharray=""/></g><g><path fill="none" stroke="#000000" paint-order="fill stroke markers" d=" M 537 605 L 728 568" stroke-miterlimit="10" stroke-dasharray=""/></g><g><path fill="none" stroke="#000000" paint-order="fill stroke markers" d=" M 537 599 L 757 493" stroke-miterlimit="10" stroke-dasharray=""/></g><g><path fill="#ffffff" stroke="none" paint-order="stroke fill markers" d=" M 1110.0640527343749 578.85 C 1110.0640527343749 573.96227952 1114.021855102375 570 1118.904052734375 570 C 1123.786250366375 570 1127.7440527343751 573.96227952 1127.7440527343751 578.85 C 1127.7440527343751 583.73772048 1123.786250366375 587.7 1118.904052734375 587.7 C 1114.021855102375 587.7 1110.0640527343749 583.73772048 1110.0640527343749 578.85 Z"/></g><g><path fill="none" stroke="#000000" paint-order="fill stroke markers" d=" M 1110.0640527343749 578.85 C 1110.0640527343749 573.96227952 1114.021855102375 570 1118.904052734375 570 C 1123.786250366375 570 1127.7440527343751 573.96227952 1127.7440527343751 578.85 C 1127.7440527343751 583.73772048 1123.786250366375 587.7 1118.904052734375 587.7 C 1114.021855102375 587.7 1110.0640527343749 583.73772048 1110.0640527343749 578.85 Z" stroke-miterlimit="10" stroke-dasharray=""/></g><g><path fill="none" stroke="#000000" paint-order="fill stroke markers" d=" M 1118.904052734375 587.7 L 1118.904052734375 605.3" stroke-miterlimit="10" stroke-dasharray=""/></g><g><path fill="none" stroke="#000000" paint-order="fill stroke markers" d=" M 1109.5440527343749 594.3 L 1128.2640527343751 594.3" stroke-miterlimit="10" stroke-dasharray=""/></g><g><path fill="none" stroke="#000000" paint-order="fill stroke markers" d=" M 1118.904052734375 605.3 L 1105.904052734375 623" stroke-miterlimit="10" stroke-dasharray=""/></g><g><path fill="none" stroke="#000000" paint-order="fill stroke markers" d=" M 1118.904052734375 605.3 L 1131.904052734375 623" stroke-miterlimit="10" stroke-dasharray=""/></g><g><g><path fill="none" stroke="none"/><text fill="#000000" stroke="none" font-family="Arial" font-size="13px" font-style="normal" font-weight="bold" text-decoration="undefined" x="802.404052734375" y="364.5" text-anchor="middle" dominant-baseline="central" transform="matrix(1 0 0 1 317 273)">Database</text></g></g><g><path fill="none" stroke="#000000" paint-order="fill stroke markers" d=" M 1084 612 L 890 627" stroke-miterlimit="10" stroke-dasharray=""/></g><g><path fill="none" stroke="#000000" paint-order="fill stroke markers" d=" M 1084 620 L 879 688" stroke-miterlimit="10" stroke-dasharray=""/></g><g><path fill="none" stroke="#000000" paint-order="fill stroke markers" d=" M 1084 603 L 866 567" stroke-miterlimit="10" stroke-dasharray=""/></g><g><path fill="none" stroke="#000000" paint-order="fill stroke markers" d=" M 1084 595 L 841 493" stroke-miterlimit="10" stroke-dasharray=""/></g></g></svg>