<svg version="1.1" xmlns="http://www.w3.org/2000/svg" xmlns:xlink="http://www.w3.org/1999/xlink" width="676.80810546875" height="453"><defs/><g><g><rect fill="#C0C0C0" stroke="none" x="351" y="103" width="369" height="433" transform="matrix(1 0 0 1 -219 -86)" fill-opacity="0.2"/></g><g><rect fill="#ffffff" stroke="none" x="344" y="96" width="369" height="433" transform="matrix(1 0 0 1 -219 -86)"/></g><g><path fill="none" stroke="#000000" paint-order="fill stroke markers" d=" M 125 10 L 494 10 L 494 443 L 125 443 L 125 10 Z Z" stroke-miterlimit="10" stroke-dasharray=""/></g><g><g><path fill="none" stroke="none"/><text fill="#000000" stroke="none" font-family="Arial" font-size="13px" font-style="normal" font-weight="bold" text-decoration="undefined" x="529" y="109.5" text-anchor="middle" dominant-baseline="central" transform="matrix(1 0 0 1 -219 -86)">QuanLyKhachSan</text></g></g><g><path fill="#C0C0C0" stroke="none" paint-order="stroke fill markers" d=" M 241 155.5 C 241 145.835016 274.8024976 138 316.5 138 C 358.19750239999996 138 392 145.835016 392 155.5 C 392 165.164984 358.19750239999996 173 316.5 173 C 274.8024976 173 241 165.164984 241 155.5 Z" fill-opacity="0.2"/></g><g><path fill="#ffffff" stroke="none" paint-order="stroke fill markers" d=" M 234 148.5 C 234 138.835016 267.8024976 131 309.5 131 C 351.19750239999996 131 385 138.835016 385 148.5 C 385 158.164984 351.19750239999996 166 309.5 166 C 267.8024976 166 234 158.164984 234 148.5 Z"/></g><g><path fill="none" stroke="#000000" paint-order="fill stroke markers" d=" M 234 148.5 C 234 138.835016 267.8024976 131 309.5 131 C 351.19750239999996 131 385 138.835016 385 148.5 C 385 158.164984 351.19750239999996 166 309.5 166 C 267.8024976 166 234 158.164984 234 148.5 Z" stroke-miterlimit="10" stroke-dasharray=""/></g><g><g><path fill="none" stroke="none"/><text fill="#000000" stroke="none" font-family="Arial" font-size="13px" font-style="normal" font-weight="bold" text-decoration="undefined" x="528.5" y="235.5" text-anchor="middle" dominant-baseline="central" transform="matrix(1 0 0 1 -219 -86)">Manage Invoice</text></g></g><g><path fill="#C0C0C0" stroke="none" paint-order="stroke fill markers" d=" M 225 316.5 C 225 301.8644528 266.1897984 290 317 290 C 367.8102016 290 409 301.8644528 409 316.5 C 409 331.1355472 367.8102016 343 317 343 C 266.1897984 343 225 331.1355472 225 316.5 Z" fill-opacity="0.2"/></g><g><path fill="#ffffff" stroke="none" paint-order="stroke fill markers" d=" M 218 309.5 C 218 294.8644528 259.1897984 283 310 283 C 360.8102016 283 402 294.8644528 402 309.5 C 402 324.1355472 360.8102016 336 310 336 C 259.1897984 336 218 324.1355472 218 309.5 Z"/></g><g><path fill="none" stroke="#000000" paint-order="fill stroke markers" d=" M 218 309.5 C 218 294.8644528 259.1897984 283 310 283 C 360.8102016 283 402 294.8644528 402 309.5 C 402 324.1355472 360.8102016 336 310 336 C 259.1897984 336 218 324.1355472 218 309.5 Z" stroke-miterlimit="10" stroke-dasharray=""/></g><g><g><path fill="none" stroke="none"/><text fill="#000000" stroke="none" font-family="Arial" font-size="13px" font-style="normal" font-weight="bold" text-decoration="undefined" x="529" y="390" text-anchor="middle" dominant-baseline="central" transform="matrix(1 0 0 1 -219 -86)">Calculate quantity</text><text fill="#000000" stroke="none" font-family="Arial" font-size="13px" font-style="normal" font-weight="bold" text-decoration="undefined" x="529" y="403" text-anchor="middle" dominant-baseline="central" transform="matrix(1 0 0 1 -219 -86)">of invoices</text></g></g><g><path fill="#C0C0C0" stroke="none" paint-order="stroke fill markers" d=" M 227 396.5 C 227 381.8644528 267.294368 370 317 370 C 366.70563200000004 370 407 381.8644528 407 396.5 C 407 411.1355472 366.70563200000004 423 317 423 C 267.294368 423 227 411.1355472 227 396.5 Z" fill-opacity="0.2"/></g><g><path fill="#ffffff" stroke="none" paint-order="stroke fill markers" d=" M 220 389.5 C 220 374.8644528 260.294368 363 310 363 C 359.70563200000004 363 400 374.8644528 400 389.5 C 400 404.1355472 359.70563200000004 416 310 416 C 260.294368 416 220 404.1355472 220 389.5 Z"/></g><g><path fill="none" stroke="#000000" paint-order="fill stroke markers" d=" M 220 389.5 C 220 374.8644528 260.294368 363 310 363 C 359.70563200000004 363 400 374.8644528 400 389.5 C 400 404.1355472 359.70563200000004 416 310 416 C 260.294368 416 220 404.1355472 220 389.5 Z" stroke-miterlimit="10" stroke-dasharray=""/></g><g><g><path fill="none" stroke="none"/><text fill="#000000" stroke="none" font-family="Arial" font-size="13px" font-style="normal" font-weight="bold" text-decoration="undefined" x="529" y="470" text-anchor="middle" dominant-baseline="central" transform="matrix(1 0 0 1 -219 -86)">Calculate average</text><text fill="#000000" stroke="none" font-family="Arial" font-size="13px" font-style="normal" font-weight="bold" text-decoration="undefined" x="529" y="483" text-anchor="middle" dominant-baseline="central" transform="matrix(1 0 0 1 -219 -86)">total of invoices</text></g></g><g><path fill="#C0C0C0" stroke="none" paint-order="stroke fill markers" d=" M 249 236.5 C 249 221.86445279999998 279.4446336 210 317 210 C 354.5553664 210 385 221.86445279999998 385 236.5 C 385 251.13554720000002 354.5553664 263 317 263 C 279.4446336 263 249 251.13554720000002 249 236.5 Z" fill-opacity="0.2"/></g><g><path fill="#ffffff" stroke="none" paint-order="stroke fill markers" d=" M 242 229.5 C 242 214.86445279999998 272.4446336 203 310 203 C 347.5553664 203 378 214.86445279999998 378 229.5 C 378 244.13554720000002 347.5553664 256 310 256 C 272.4446336 256 242 244.13554720000002 242 229.5 Z"/></g><g><path fill="none" stroke="#000000" paint-order="fill stroke markers" d=" M 242 229.5 C 242 214.86445279999998 272.4446336 203 310 203 C 347.5553664 203 378 214.86445279999998 378 229.5 C 378 244.13554720000002 347.5553664 256 310 256 C 272.4446336 256 242 244.13554720000002 242 229.5 Z" stroke-miterlimit="10" stroke-dasharray=""/></g><g><g><path fill="none" stroke="none"/><text fill="#000000" stroke="none" font-family="Arial" font-size="13px" font-style="normal" font-weight="bold" text-decoration="undefined" x="529" y="310" text-anchor="middle" dominant-baseline="central" transform="matrix(1 0 0 1 -219 -86)">View invoice</text><text fill="#000000" stroke="none" font-family="Arial" font-size="13px" font-style="normal" font-weight="bold" text-decoration="undefined" x="529" y="323" text-anchor="middle" dominant-baseline="central" transform="matrix(1 0 0 1 -219 -86)">list</text></g></g><g><path fill="#ffffff" stroke="none" paint-order="stroke fill markers" d=" M 230 67 L 379 67 L 389 77 L 389 106 L 230 106 L 230 67"/></g><g><path fill="none" stroke="#000000" paint-order="fill stroke markers" d=" M 230 67 L 379 67 L 389 77 L 389 106 L 230 106 L 230 67 L 230 67" stroke-miterlimit="10" stroke-dasharray=""/></g><g><path fill="none" stroke="#000000" paint-order="fill stroke markers" d=" M 379 67 L 379 77 L 389 77 L 379 67" stroke-miterlimit="10" stroke-dasharray=""/></g><g><g><path fill="none" stroke="none"/><text fill="#000000" stroke="none" font-family="Arial" font-size="13px" font-style="normal" font-weight="normal" text-decoration="undefined" x="454" y="158" text-anchor="start" dominant-baseline="text-before-edge" transform="matrix(1 0 0 1 -219 -86)">Create/Update/Delete</text></g></g><g><path fill="none" stroke="#000000" paint-order="fill stroke markers" d=" M 310 131 L 310 107" stroke-miterlimit="10" stroke-dasharray="3"/></g><g><path fill="#ffffff" stroke="none" paint-order="stroke fill markers" d=" M 20.613613281249997 252.85000000000002 C 20.613613281249997 247.96227952000004 24.571415649250014 244 29.45361328125 244 C 34.335810913249986 244 38.293613281249975 247.96227952000004 38.293613281249975 252.85000000000002 C 38.293613281249975 257.73772048 34.335810913249986 261.7 29.45361328125 261.7 C 24.571415649250014 261.7 20.613613281249997 257.73772048 20.613613281249997 252.85000000000002 Z"/></g><g><path fill="none" stroke="#000000" paint-order="fill stroke markers" d=" M 20.613613281249997 252.85000000000002 C 20.613613281249997 247.96227952000004 24.571415649250014 244 29.45361328125 244 C 34.335810913249986 244 38.293613281249975 247.96227952000004 38.293613281249975 252.85000000000002 C 38.293613281249975 257.73772048 34.335810913249986 261.7 29.45361328125 261.7 C 24.571415649250014 261.7 20.613613281249997 257.73772048 20.613613281249997 252.85000000000002 Z" stroke-miterlimit="10" stroke-dasharray=""/></g><g><path fill="none" stroke="#000000" paint-order="fill stroke markers" d=" M 29.45361328125 261.7 L 29.45361328125 279.3" stroke-miterlimit="10" stroke-dasharray=""/></g><g><path fill="none" stroke="#000000" paint-order="fill stroke markers" d=" M 20.093613281249986 268.3 L 38.813613281250014 268.3" stroke-miterlimit="10" stroke-dasharray=""/></g><g><path fill="none" stroke="#000000" paint-order="fill stroke markers" d=" M 29.45361328125 279.3 L 16.45361328125 297" stroke-miterlimit="10" stroke-dasharray=""/></g><g><path fill="none" stroke="#000000" paint-order="fill stroke markers" d=" M 29.45361328125 279.3 L 42.45361328125 297" stroke-miterlimit="10" stroke-dasharray=""/></g><g><g><path fill="none" stroke="none"/><text fill="#000000" stroke="none" font-family="Arial" font-size="13px" font-style="normal" font-weight="bold" text-decoration="undefined" x="248.95361328125" y="397.5" text-anchor="middle" dominant-baseline="central" transform="matrix(1 0 0 1 -219 -86)">User</text></g></g><g><path fill="none" stroke="#000000" paint-order="fill stroke markers" d=" M 50 285 L 217 300" stroke-miterlimit="10" stroke-dasharray=""/></g><g><path fill="none" stroke="#000000" paint-order="fill stroke markers" d=" M 50 291 L 238 362" stroke-miterlimit="10" stroke-dasharray=""/></g><g><path fill="none" stroke="#000000" paint-order="fill stroke markers" d=" M 50 279 L 241 242" stroke-miterlimit="10" stroke-dasharray=""/></g><g><path fill="none" stroke="#000000" paint-order="fill stroke markers" d=" M 50 273 L 270 167" stroke-miterlimit="10" stroke-dasharray=""/></g><g><path fill="#ffffff" stroke="none" paint-order="stroke fill markers" d=" M 623.064052734375 252.85000000000002 C 623.064052734375 247.96227952000004 627.021855102375 244 631.904052734375 244 C 636.786250366375 244 640.744052734375 247.96227952000004 640.744052734375 252.85000000000002 C 640.744052734375 257.73772048 636.786250366375 261.7 631.904052734375 261.7 C 627.021855102375 261.7 623.064052734375 257.73772048 623.064052734375 252.85000000000002 Z"/></g><g><path fill="none" stroke="#000000" paint-order="fill stroke markers" d=" M 623.064052734375 252.85000000000002 C 623.064052734375 247.96227952000004 627.021855102375 244 631.904052734375 244 C 636.786250366375 244 640.744052734375 247.96227952000004 640.744052734375 252.85000000000002 C 640.744052734375 257.73772048 636.786250366375 261.7 631.904052734375 261.7 C 627.021855102375 261.7 623.064052734375 257.73772048 623.064052734375 252.85000000000002 Z" stroke-miterlimit="10" stroke-dasharray=""/></g><g><path fill="none" stroke="#000000" paint-order="fill stroke markers" d=" M 631.904052734375 261.7 L 631.904052734375 279.3" stroke-miterlimit="10" stroke-dasharray=""/></g><g><path fill="none" stroke="#000000" paint-order="fill stroke markers" d=" M 622.544052734375 268.3 L 641.264052734375 268.3" stroke-miterlimit="10" stroke-dasharray=""/></g><g><path fill="none" stroke="#000000" paint-order="fill stroke markers" d=" M 631.904052734375 279.3 L 618.904052734375 297" stroke-miterlimit="10" stroke-dasharray=""/></g><g><path fill="none" stroke="#000000" paint-order="fill stroke markers" d=" M 631.904052734375 279.3 L 644.904052734375 297" stroke-miterlimit="10" stroke-dasharray=""/></g><g><g><path fill="none" stroke="none"/><text fill="#000000" stroke="none" font-family="Arial" font-size="13px" font-style="normal" font-weight="bold" text-decoration="undefined" x="851.404052734375" y="397.5" text-anchor="middle" dominant-baseline="central" transform="matrix(1 0 0 1 -219 -86)">Database</text></g></g><g><path fill="none" stroke="#000000" paint-order="fill stroke markers" d=" M 597 286 L 403 301" stroke-miterlimit="10" stroke-dasharray=""/></g><g><path fill="none" stroke="#000000" paint-order="fill stroke markers" d=" M 597 294 L 392 362" stroke-miterlimit="10" stroke-dasharray=""/></g><g><path fill="none" stroke="#000000" paint-order="fill stroke markers" d=" M 597 277 L 379 241" stroke-miterlimit="10" stroke-dasharray=""/></g><g><path fill="none" stroke="#000000" paint-order="fill stroke markers" d=" M 597 269 L 354 167" stroke-miterlimit="10" stroke-dasharray=""/></g></g></svg>