<svg version="1.1" xmlns="http://www.w3.org/2000/svg" xmlns:xlink="http://www.w3.org/1999/xlink" width="828" height="420"><defs/><g><g><path fill="#ffffff" stroke="none" paint-order="stroke fill markers" d=" M 56.9813094815341 17.299999999999997 C 56.9813094815341 13.82060576 59.85971120371592 11 63.410400390625 11 C 66.96108957753408 11 69.8394912997159 13.82060576 69.8394912997159 17.299999999999997 C 69.8394912997159 20.779394239999995 66.96108957753408 23.6 63.410400390625 23.6 C 59.85971120371592 23.6 56.9813094815341 20.779394239999995 56.9813094815341 17.299999999999997 Z"/></g><g><path fill="none" stroke="#000000" paint-order="fill stroke markers" d=" M 56.9813094815341 17.299999999999997 C 56.9813094815341 13.82060576 59.85971120371592 11 63.410400390625 11 C 66.96108957753408 11 69.8394912997159 13.82060576 69.8394912997159 17.299999999999997 C 69.8394912997159 20.779394239999995 66.96108957753408 23.6 63.410400390625 23.6 C 59.85971120371592 23.6 56.9813094815341 20.779394239999995 56.9813094815341 17.299999999999997 Z" stroke-miterlimit="10" stroke-dasharray=""/></g><g><path fill="none" stroke="#000000" paint-order="fill stroke markers" d=" M 63.410400390625 23.6 L 63.410400390625 36.400000000000006" stroke-miterlimit="10" stroke-dasharray=""/></g><g><path fill="none" stroke="#000000" paint-order="fill stroke markers" d=" M 56.60312766335227 28.4 L 70.21767311789773 28.4" stroke-miterlimit="10" stroke-dasharray=""/></g><g><path fill="none" stroke="#000000" paint-order="fill stroke markers" d=" M 63.410400390625 36.400000000000006 L 53.95585493607955 49" stroke-miterlimit="10" stroke-dasharray=""/></g><g><path fill="none" stroke="#000000" paint-order="fill stroke markers" d=" M 63.410400390625 36.400000000000006 L 72.86494584517045 49" stroke-miterlimit="10" stroke-dasharray=""/></g><g><g><path fill="none" stroke="none"/><text fill="#000000" stroke="none" font-family="Arial" font-size="13px" font-style="normal" font-weight="bold" text-decoration="undefined" x="85.910400390625" y="93.5" text-anchor="middle" dominant-baseline="central" transform="matrix(1 0 0 1 -22 -30)">Actor</text></g></g><g><path fill="none" stroke="#000000" paint-order="fill stroke markers" d=" M 63.5 76 L 63.5 410" stroke-miterlimit="10" stroke-dasharray="3"/></g><g><path fill="none" stroke="#000000" paint-order="fill stroke markers" d=" M 233.52294921875 30 C 233.52294921875 21.163443200000003 240.68639241875002 14 249.52294921875 14 C 258.35950601875 14 265.52294921875 21.163443200000003 265.52294921875 30 C 265.52294921875 38.8365568 258.35950601875 46 249.52294921875 46 C 240.68639241875002 46 233.52294921875 38.8365568 233.52294921875 30 Z" stroke-miterlimit="10" stroke-dasharray=""/></g><g><path fill="#a1e4fa" stroke="none" paint-order="stroke fill markers" d=" M 233.92294921875 30 C 233.92294921875 21.384357120000004 240.90730633875 14.399999999999999 249.52294921875 14.399999999999999 C 258.13859209875 14.399999999999999 265.12294921875 21.384357120000004 265.12294921875 30 C 265.12294921875 38.615642879999996 258.13859209875 45.599999999999994 249.52294921875 45.599999999999994 C 240.90730633875 45.599999999999994 233.92294921875 38.615642879999996 233.92294921875 30 Z"/></g><g><path fill="none" stroke="#000000" paint-order="fill stroke markers" d=" M 225.52294921875 14 L 225.52294921875 46" stroke-miterlimit="10" stroke-dasharray=""/></g><g><path fill="none" stroke="#000000" paint-order="fill stroke markers" d=" M 225.52294921875 30 L 233.52294921875 30" stroke-miterlimit="10" stroke-dasharray=""/></g><g><g><path fill="none" stroke="none"/><text fill="#000000" stroke="none" font-family="Arial" font-size="13px" font-style="normal" font-weight="bold" text-decoration="undefined" x="268.02294921875" y="93.5" text-anchor="middle" dominant-baseline="central" transform="matrix(1 0 0 1 -22 -30)">: ViewInvoiceListDatabase</text></g></g><g><path fill="none" stroke="#000000" paint-order="fill stroke markers" d=" M 246.5 76 L 246.5 410" stroke-miterlimit="10" stroke-dasharray="3"/></g><g><path fill="none" stroke="#000000" paint-order="fill stroke markers" d=" M 440.915283203125 30 C 440.915283203125 21.163443200000003 448.078726403125 14 456.915283203125 14 C 465.751840003125 14 472.915283203125 21.163443200000003 472.915283203125 30 C 472.915283203125 38.8365568 465.751840003125 46 456.915283203125 46 C 448.078726403125 46 440.915283203125 38.8365568 440.915283203125 30 Z" stroke-miterlimit="10" stroke-dasharray=""/></g><g><path fill="#a1e4fa" stroke="none" paint-order="stroke fill markers" d=" M 441.315283203125 30 C 441.315283203125 21.384357120000004 448.299640323125 14.399999999999999 456.915283203125 14.399999999999999 C 465.530926083125 14.399999999999999 472.515283203125 21.384357120000004 472.515283203125 30 C 472.515283203125 38.615642879999996 465.530926083125 45.599999999999994 456.915283203125 45.599999999999994 C 448.299640323125 45.599999999999994 441.315283203125 38.615642879999996 441.315283203125 30 Z"/></g><g><path fill="none" stroke="#000000" paint-order="fill stroke markers" d=" M 432.915283203125 14 L 432.915283203125 46" stroke-miterlimit="10" stroke-dasharray=""/></g><g><path fill="none" stroke="#000000" paint-order="fill stroke markers" d=" M 432.915283203125 30 L 440.915283203125 30" stroke-miterlimit="10" stroke-dasharray=""/></g><g><g><path fill="none" stroke="none"/><text fill="#000000" stroke="none" font-family="Arial" font-size="13px" font-style="normal" font-weight="bold" text-decoration="undefined" x="475.415283203125" y="93.5" text-anchor="middle" dominant-baseline="central" transform="matrix(1 0 0 1 -22 -30)">: ViewInvoiceListOutput</text></g></g><g><path fill="none" stroke="#000000" paint-order="fill stroke markers" d=" M 453.5 76 L 453.5 410" stroke-miterlimit="10" stroke-dasharray="3"/></g><g><path fill="none" stroke="#000000" paint-order="fill stroke markers" d=" M 660.111572265625 30 C 660.111572265625 21.715728 666.827300265625 15 675.111572265625 15 C 683.395844265625 15 690.111572265625 21.715728 690.111572265625 30 C 690.111572265625 38.284272 683.395844265625 45 675.111572265625 45 C 666.827300265625 45 660.111572265625 38.284272 660.111572265625 30 Z" stroke-miterlimit="10" stroke-dasharray=""/></g><g><path fill="#fce5b2" stroke="none" paint-order="stroke fill markers" d=" M 660.611572265625 30 C 660.611572265625 21.991870399999996 667.103442665625 15.5 675.111572265625 15.5 C 683.119701865625 15.5 689.611572265625 21.991870399999996 689.611572265625 30 C 689.611572265625 38.008129600000004 683.119701865625 44.5 675.111572265625 44.5 C 667.103442665625 44.5 660.611572265625 38.008129600000004 660.611572265625 30 Z"/></g><g><path fill="none" stroke="#000000" paint-order="fill stroke markers" d=" M 675.111572265625 15 L 680.111572265625 10" stroke-miterlimit="10" stroke-dasharray=""/></g><g><path fill="none" stroke="#000000" paint-order="fill stroke markers" d=" M 675.111572265625 15 L 680.111572265625 20" stroke-miterlimit="10" stroke-dasharray=""/></g><g><path fill="none" stroke="#000000" paint-order="fill stroke markers" d=" M 620.111572265625 30 C 620.111572265625 21.715728 626.827300265625 15 635.111572265625 15 C 643.395844265625 15 650.111572265625 21.715728 650.111572265625 30 C 650.111572265625 38.284272 643.395844265625 45 635.111572265625 45 C 626.827300265625 45 620.111572265625 38.284272 620.111572265625 30 Z" stroke-miterlimit="10" stroke-dasharray=""/></g><g><path fill="#a1e4fa" stroke="none" paint-order="stroke fill markers" d=" M 620.611572265625 30 C 620.611572265625 21.991870399999996 627.103442665625 15.5 635.111572265625 15.5 C 643.119701865625 15.5 649.611572265625 21.991870399999996 649.611572265625 30 C 649.611572265625 38.008129600000004 643.119701865625 44.5 635.111572265625 44.5 C 627.103442665625 44.5 620.611572265625 38.008129600000004 620.611572265625 30 Z"/></g><g><path fill="none" stroke="#000000" paint-order="fill stroke markers" d=" M 611.111572265625 15 L 611.111572265625 47" stroke-miterlimit="10" stroke-dasharray=""/></g><g><path fill="none" stroke="#000000" paint-order="fill stroke markers" d=" M 611.111572265625 30 L 620.111572265625 30" stroke-miterlimit="10" stroke-dasharray=""/></g><g><g><path fill="none" stroke="none"/><text fill="#000000" stroke="none" font-family="Arial" font-size="13px" font-style="normal" font-weight="bold" text-decoration="undefined" x="677.611572265625" y="93.5" text-anchor="middle" dominant-baseline="central" transform="matrix(1 0 0 1 -22 -30)">ViewInvoiceListUseCase</text><text fill="#000000" stroke="none" font-family="Arial" font-size="13px" font-style="normal" font-weight="bold" text-decoration="undefined" x="677.611572265625" y="106.5" text-anchor="middle" dominant-baseline="central" transform="matrix(1 0 0 1 -22 -30)">:ViewInvoiceListInput</text></g></g><g><path fill="none" stroke="#000000" paint-order="fill stroke markers" d=" M 655.5 89 L 655.5 410" stroke-miterlimit="10" stroke-dasharray="3"/></g><g><path fill="none" stroke="#000000" paint-order="fill stroke markers" d=" M 64 114 L 648 114" stroke-miterlimit="10" stroke-dasharray=""/></g><g><path fill="#000000" stroke="none" paint-order="stroke fill markers" d=" M 637.8373251423759 118.209517756016 L 648 114 L 637.8373251423758 109.790482243984"/></g><g><path fill="none" stroke="#000000" paint-order="fill stroke markers" d=" M 637.8373251423759 118.209517756016 L 648 114 L 637.8373251423758 109.790482243984 L 637.8373251423759 118.209517756016" stroke-miterlimit="10" stroke-dasharray=""/></g><g><rect fill="#ffffff" stroke="none" x="339" y="128" width="78.04443359375" height="13" transform="matrix(1 0 0 1 -22 -30)"/></g><g><g><path fill="none" stroke="none"/><text fill="#000000" stroke="none" font-family="Arial" font-size="13px" font-style="normal" font-weight="normal" text-decoration="undefined" x="378.022216796875" y="134.5" text-anchor="middle" dominant-baseline="central" transform="matrix(1 0 0 1 -22 -30)">1 : execute()</text></g></g><g><rect fill="#ffffff" stroke="none" x="670" y="144" width="14" height="240" transform="matrix(1 0 0 1 -22 -30)"/></g><g><path fill="none" stroke="#000000" paint-order="fill stroke markers" d=" M 648 114 L 662 114 L 662 354 L 648 354 L 648 114 Z Z" stroke-miterlimit="10" stroke-dasharray=""/></g><g><path fill="none" stroke="#000000" paint-order="fill stroke markers" d=" M 648 162 L 253 162" stroke-miterlimit="10" stroke-dasharray=""/></g><g><path fill="#000000" stroke="none" paint-order="stroke fill markers" d=" M 263.16267485762415 157.790482243984 L 253 162 L 263.16267485762415 166.209517756016"/></g><g><path fill="none" stroke="#000000" paint-order="fill stroke markers" d=" M 263.16267485762415 157.790482243984 L 253 162 L 263.16267485762415 166.209517756016 L 263.16267485762415 157.790482243984" stroke-miterlimit="10" stroke-dasharray=""/></g><g><rect fill="#ffffff" stroke="none" x="418" y="175" width="106.21533203125" height="13" transform="matrix(1 0 0 1 -22 -30)"/></g><g><g><path fill="none" stroke="none"/><text fill="#000000" stroke="none" font-family="Arial" font-size="13px" font-style="normal" font-weight="normal" text-decoration="undefined" x="471.107666015625" y="181.5" text-anchor="middle" dominant-baseline="central" transform="matrix(1 0 0 1 -22 -30)">2 : getInvoiceList()</text></g></g><g><rect fill="#ffffff" stroke="none" x="261" y="192" width="14" height="88" transform="matrix(1 0 0 1 -22 -30)"/></g><g><path fill="none" stroke="#000000" paint-order="fill stroke markers" d=" M 239 162 L 253 162 L 253 250 L 239 250 L 239 162 Z Z" stroke-miterlimit="10" stroke-dasharray=""/></g><g><path fill="none" stroke="#000000" paint-order="fill stroke markers" d=" M 253 178 L 283 178 L 283 198 L 260 198" stroke-miterlimit="10" stroke-dasharray=""/></g><g><path fill="#000000" stroke="none" paint-order="stroke fill markers" d=" M 270.16267485762415 193.790482243984 L 260 198 L 270.16267485762415 202.209517756016"/></g><g><path fill="none" stroke="#000000" paint-order="fill stroke markers" d=" M 270.16267485762415 193.790482243984 L 260 198 L 270.16267485762415 202.209517756016 L 270.16267485762415 193.790482243984" stroke-miterlimit="10" stroke-dasharray=""/></g><g><rect fill="#ffffff" stroke="none" x="315" y="206" width="97" height="26" transform="matrix(1 0 0 1 -22 -30)"/></g><g><g><path fill="none" stroke="none"/><text fill="#000000" stroke="none" font-family="Arial" font-size="13px" font-style="normal" font-weight="normal" text-decoration="undefined" x="363.5" y="212.5" text-anchor="middle" dominant-baseline="central" transform="matrix(1 0 0 1 -22 -30)">3 : Lấy danh</text><text fill="#000000" stroke="none" font-family="Arial" font-size="13px" font-style="normal" font-weight="normal" text-decoration="undefined" x="363.5" y="225.5" text-anchor="middle" dominant-baseline="central" transform="matrix(1 0 0 1 -22 -30)">sách hóa đơn</text></g></g><g><rect fill="#ffffff" stroke="none" x="268" y="228" width="14" height="28" transform="matrix(1 0 0 1 -22 -30)"/></g><g><path fill="none" stroke="#000000" paint-order="fill stroke markers" d=" M 246 198 L 260 198 L 260 226 L 246 226 L 246 198 Z Z" stroke-miterlimit="10" stroke-dasharray=""/></g><g><path fill="none" stroke="#000000" paint-order="fill stroke markers" d=" M 253 242 L 648 242" stroke-miterlimit="10" stroke-dasharray="3"/></g><g><path fill="none" stroke="#000000" paint-order="fill stroke markers" d=" M 637.8373251423759 246.209517756016 L 648 242 L 637.8373251423758 237.790482243984" stroke-miterlimit="10" stroke-dasharray=""/></g><g><rect fill="#ffffff" stroke="none" x="415" y="256" width="115.603515625" height="13" transform="matrix(1 0 0 1 -22 -30)"/></g><g><g><path fill="none" stroke="none"/><text fill="#000000" stroke="none" font-family="Arial" font-size="13px" font-style="normal" font-weight="normal" text-decoration="undefined" x="472.8017578125" y="262.5" text-anchor="middle" dominant-baseline="central" transform="matrix(1 0 0 1 -22 -30)">4 : return invoice list</text></g></g><g><path fill="none" stroke="#000000" paint-order="fill stroke markers" d=" M 662 258 L 692 258 L 692 278 L 669 278" stroke-miterlimit="10" stroke-dasharray=""/></g><g><path fill="#000000" stroke="none" paint-order="stroke fill markers" d=" M 679.1626748576241 273.790482243984 L 669 278 L 679.1626748576241 282.209517756016"/></g><g><path fill="none" stroke="#000000" paint-order="fill stroke markers" d=" M 679.1626748576241 273.790482243984 L 669 278 L 679.1626748576241 282.209517756016 L 679.1626748576241 273.790482243984" stroke-miterlimit="10" stroke-dasharray=""/></g><g><rect fill="#ffffff" stroke="none" x="727" y="272" width="113" height="26" transform="matrix(1 0 0 1 -22 -30)"/></g><g><g><path fill="none" stroke="none"/><text fill="#000000" stroke="none" font-family="Arial" font-size="13px" font-style="normal" font-weight="normal" text-decoration="undefined" x="783.5" y="278.5" text-anchor="middle" dominant-baseline="central" transform="matrix(1 0 0 1 -22 -30)">5 : Kiểm tra danh</text><text fill="#000000" stroke="none" font-family="Arial" font-size="13px" font-style="normal" font-weight="normal" text-decoration="undefined" x="783.5" y="291.5" text-anchor="middle" dominant-baseline="central" transform="matrix(1 0 0 1 -22 -30)">sách rỗng</text></g></g><g><rect fill="#ffffff" stroke="none" x="677" y="308" width="14" height="28" transform="matrix(1 0 0 1 -22 -30)"/></g><g><path fill="none" stroke="#000000" paint-order="fill stroke markers" d=" M 655 278 L 669 278 L 669 306 L 655 306 L 655 278 Z Z" stroke-miterlimit="10" stroke-dasharray=""/></g><g><path fill="none" stroke="#000000" paint-order="fill stroke markers" d=" M 648 330 L 460 330" stroke-miterlimit="10" stroke-dasharray=""/></g><g><path fill="#000000" stroke="none" paint-order="stroke fill markers" d=" M 470.16267485762415 325.790482243984 L 460 330 L 470.16267485762415 334.209517756016"/></g><g><path fill="none" stroke="#000000" paint-order="fill stroke markers" d=" M 470.16267485762415 325.790482243984 L 460 330 L 470.16267485762415 334.209517756016 L 470.16267485762415 325.790482243984" stroke-miterlimit="10" stroke-dasharray=""/></g><g><rect fill="#ffffff" stroke="none" x="487" y="342" width="176.3125" height="13" transform="matrix(1 0 0 1 -22 -30)"/></g><g><g><path fill="none" stroke="none"/><text fill="#000000" stroke="none" font-family="Arial" font-size="13px" font-style="normal" font-weight="normal" text-decoration="undefined" x="575.15625" y="348.5" text-anchor="middle" dominant-baseline="central" transform="matrix(1 0 0 1 -22 -30)">6 : exportData(ResponseData)</text></g></g><g><rect fill="#ffffff" stroke="none" x="468" y="360" width="14" height="28" transform="matrix(1 0 0 1 -22 -30)"/></g><g><path fill="none" stroke="#000000" paint-order="fill stroke markers" d=" M 446 330 L 460 330 L 460 358 L 446 358 L 446 330 Z Z" stroke-miterlimit="10" stroke-dasharray=""/></g><g><path fill="none" stroke="#000000" paint-order="fill stroke markers" d=" M 354 290 L 714 290 L 714 370 L 354 370 L 354 290" stroke-miterlimit="10" stroke-dasharray=""/></g><g><path fill="#ffffff" stroke="none" paint-order="stroke fill markers" d=" M 354 290 L 354 313 L 450.18994140625 313 L 461.68994140625 301.5 L 461.68994140625 290 L 354 290"/></g><g><path fill="none" stroke="#000000" paint-order="fill stroke markers" d=" M 354 290 L 354 313 L 450.18994140625 313 L 461.68994140625 301.5 L 461.68994140625 290 L 354 290 L 354 290" stroke-miterlimit="10" stroke-dasharray=""/></g><g><g><path fill="none" stroke="none"/><text fill="#000000" stroke="none" font-family="Arial" font-size="13px" font-style="normal" font-weight="normal" text-decoration="undefined" x="433.9599609375" y="331.5" text-anchor="middle" dominant-baseline="central" transform="matrix(1 0 0 1 -22 -30)">isListEmpty</text></g></g><g><g><path fill="none" stroke="none"/><text fill="#000000" stroke="none" font-family="Arial" font-size="13px" font-style="normal" font-weight="bold" text-decoration="undefined" x="387.864990234375" y="331.5" text-anchor="middle" dominant-baseline="central" transform="matrix(1 0 0 1 -22 -30)">alt</text></g></g><g><g><path fill="none" stroke="none"/><text fill="#000000" stroke="none" font-family="Arial" font-size="13px" font-style="normal" font-weight="normal" text-decoration="undefined" x="428.154052734375" y="364.5" text-anchor="middle" dominant-baseline="central" transform="matrix(1 0 0 1 -22 -30)">[not empty]</text></g></g></g></svg>