<svg version="1.1" xmlns="http://www.w3.org/2000/svg" xmlns:xlink="http://www.w3.org/1999/xlink" width="330" height="197"><defs/><g><g><rect fill="#C0C0C0" stroke="none" x="47" y="123" width="117" height="97" transform="matrix(1 0 0 1 -30 -26)" fill-opacity="0.2"/></g><g><rect fill="#e2e2e2" stroke="none" x="40" y="116" width="117" height="97" transform="matrix(1 0 0 1 -30 -26)"/></g><g><path fill="none" stroke="#000000" paint-order="fill stroke markers" d=" M 10 90 L 127 90 L 127 187 L 10 187 L 10 90 Z Z" stroke-miterlimit="10" stroke-dasharray=""/></g><g><g><path fill="none" stroke="none"/><text fill="#000000" stroke="none" font-family="Arial" font-size="12px" font-style="normal" font-weight="normal" text-decoration="undefined" x="99" y="127" text-anchor="middle" dominant-baseline="central" transform="matrix(1 0 0 1 -30 -26)">«metaClass»</text></g></g><g><g><path fill="none" stroke="none"/><text fill="#000000" stroke="none" font-family="Arial" font-size="12px" font-style="normal" font-weight="bold" text-decoration="undefined" x="99" y="141" text-anchor="middle" dominant-baseline="central" transform="matrix(1 0 0 1 -30 -26)">UMLModel</text></g></g><g><rect fill="#C0C0C0" stroke="none" x="231" y="43" width="125" height="37" transform="matrix(1 0 0 1 -30 -26)" fill-opacity="0.2"/></g><g><rect fill="#ffffff" stroke="none" x="224" y="36" width="125" height="37" transform="matrix(1 0 0 1 -30 -26)"/></g><g><path fill="none" stroke="#000000" paint-order="fill stroke markers" d=" M 194 10 L 319 10 L 319 47 L 194 47 L 194 10 Z Z" stroke-miterlimit="10" stroke-dasharray=""/></g><g><g><path fill="none" stroke="none"/><text fill="#000000" stroke="none" font-family="Arial" font-size="12px" font-style="normal" font-weight="normal" text-decoration="undefined" x="287" y="47" text-anchor="middle" dominant-baseline="central" transform="matrix(1 0 0 1 -30 -26)">«stereotype»</text></g></g><g><g><path fill="none" stroke="none"/><text fill="#000000" stroke="none" font-family="Arial" font-size="12px" font-style="normal" font-weight="bold" text-decoration="undefined" x="287" y="61" text-anchor="middle" dominant-baseline="central" transform="matrix(1 0 0 1 -30 -26)">BuildComponent</text></g></g><g><rect fill="#C0C0C0" stroke="none" x="231" y="123" width="93" height="37" transform="matrix(1 0 0 1 -30 -26)" fill-opacity="0.2"/></g><g><rect fill="#ffffff" stroke="none" x="224" y="116" width="93" height="37" transform="matrix(1 0 0 1 -30 -26)"/></g><g><path fill="none" stroke="#000000" paint-order="fill stroke markers" d=" M 194 90 L 287 90 L 287 127 L 194 127 L 194 90 Z Z" stroke-miterlimit="10" stroke-dasharray=""/></g><g><g><path fill="none" stroke="none"/><text fill="#000000" stroke="none" font-family="Arial" font-size="12px" font-style="normal" font-weight="normal" text-decoration="undefined" x="271" y="127" text-anchor="middle" dominant-baseline="central" transform="matrix(1 0 0 1 -30 -26)">«stereotype»</text></g></g><g><g><path fill="none" stroke="none"/><text fill="#000000" stroke="none" font-family="Arial" font-size="12px" font-style="normal" font-weight="bold" text-decoration="undefined" x="271" y="141" text-anchor="middle" dominant-baseline="central" transform="matrix(1 0 0 1 -30 -26)">Metamodel</text></g></g><g><rect fill="#C0C0C0" stroke="none" x="231" y="183" width="93" height="37" transform="matrix(1 0 0 1 -30 -26)" fill-opacity="0.2"/></g><g><rect fill="#ffffff" stroke="none" x="224" y="176" width="93" height="37" transform="matrix(1 0 0 1 -30 -26)"/></g><g><path fill="none" stroke="#000000" paint-order="fill stroke markers" d=" M 194 150 L 287 150 L 287 187 L 194 187 L 194 150 Z Z" stroke-miterlimit="10" stroke-dasharray=""/></g><g><g><path fill="none" stroke="none"/><text fill="#000000" stroke="none" font-family="Arial" font-size="12px" font-style="normal" font-weight="normal" text-decoration="undefined" x="271" y="187" text-anchor="middle" dominant-baseline="central" transform="matrix(1 0 0 1 -30 -26)">«stereotype»</text></g></g><g><g><path fill="none" stroke="none"/><text fill="#000000" stroke="none" font-family="Arial" font-size="12px" font-style="normal" font-weight="bold" text-decoration="undefined" x="271" y="201" text-anchor="middle" dominant-baseline="central" transform="matrix(1 0 0 1 -30 -26)">SystemModel</text></g></g><g><path fill="none" stroke="#000000" paint-order="fill stroke markers" d=" M 194 110 L 127 110" stroke-miterlimit="10" stroke-dasharray=""/></g><g><path fill="#000000" stroke="none" paint-order="stroke fill markers" d=" M 137.16267485762415 105.790482243984 L 127 110 L 137.16267485762415 114.209517756016"/></g><g><path fill="none" stroke="#000000" paint-order="fill stroke markers" d=" M 137.16267485762415 105.790482243984 L 127 110 L 137.16267485762415 114.209517756016 L 137.16267485762415 105.790482243984" stroke-miterlimit="10" stroke-dasharray=""/></g><g><path fill="none" stroke="#000000" paint-order="fill stroke markers" d=" M 194 170 L 127 170" stroke-miterlimit="10" stroke-dasharray=""/></g><g><path fill="#000000" stroke="none" paint-order="stroke fill markers" d=" M 137.16267485762415 165.790482243984 L 127 170 L 137.16267485762415 174.209517756016"/></g><g><path fill="none" stroke="#000000" paint-order="fill stroke markers" d=" M 137.16267485762415 165.790482243984 L 127 170 L 137.16267485762415 174.209517756016 L 137.16267485762415 165.790482243984" stroke-miterlimit="10" stroke-dasharray=""/></g><g><rect fill="#C0C0C0" stroke="none" x="47" y="43" width="117" height="41" transform="matrix(1 0 0 1 -30 -26)" fill-opacity="0.2"/></g><g><rect fill="#e2e2e2" stroke="none" x="40" y="36" width="117" height="41" transform="matrix(1 0 0 1 -30 -26)"/></g><g><path fill="none" stroke="#000000" paint-order="fill stroke markers" d=" M 10 10 L 127 10 L 127 51 L 10 51 L 10 10 Z Z" stroke-miterlimit="10" stroke-dasharray=""/></g><g><g><path fill="none" stroke="none"/><text fill="#000000" stroke="none" font-family="Arial" font-size="12px" font-style="normal" font-weight="normal" text-decoration="undefined" x="99" y="47" text-anchor="middle" dominant-baseline="central" transform="matrix(1 0 0 1 -30 -26)">«metaClass»</text></g></g><g><g><path fill="none" stroke="none"/><text fill="#000000" stroke="none" font-family="Arial" font-size="12px" font-style="normal" font-weight="bold" text-decoration="undefined" x="99" y="61" text-anchor="middle" dominant-baseline="central" transform="matrix(1 0 0 1 -30 -26)">UMLComponent</text></g></g><g><path fill="none" stroke="#000000" paint-order="fill stroke markers" d=" M 193 29 L 128 29" stroke-miterlimit="10" stroke-dasharray=""/></g><g><path fill="#000000" stroke="none" paint-order="stroke fill markers" d=" M 138.16267485762415 24.790482243984016 L 128 29 L 138.16267485762415 33.209517756015984"/></g><g><path fill="none" stroke="#000000" paint-order="fill stroke markers" d=" M 138.16267485762415 24.790482243984016 L 128 29 L 138.16267485762415 33.209517756015984 L 138.16267485762415 24.790482243984016" stroke-miterlimit="10" stroke-dasharray=""/></g></g></svg>