<svg version="1.1" xmlns="http://www.w3.org/2000/svg" xmlns:xlink="http://www.w3.org/1999/xlink" width="1908" height="918"><defs/><g><g><rect fill="#C0C0C0" stroke="none" x="2135" y="591" width="124.16259765625" height="71" transform="matrix(1 0 0 1 -598 -110)" fill-opacity="0.2"/></g><g><rect fill="#ffffff" stroke="none" x="2128" y="584" width="124.16259765625" height="71" transform="matrix(1 0 0 1 -598 -110)"/></g><g><path fill="none" stroke="#000000" paint-order="fill stroke markers" d=" M 1530 474 L 1654.16259765625 474 L 1654.16259765625 545 L 1530 545 L 1530 474 Z Z" stroke-miterlimit="10" stroke-dasharray=""/></g><g><path fill="none" stroke="#000000" paint-order="fill stroke markers" d=" M 1530 499 L 1654.16259765625 499" stroke-miterlimit="10" stroke-dasharray=""/></g><g><path fill="none" stroke="#000000" paint-order="fill stroke markers" d=" M 1530 522 L 1654.16259765625 522" stroke-miterlimit="10" stroke-dasharray=""/></g><g><g><path fill="none" stroke="none"/><text fill="#000000" stroke="none" font-family="Arial" font-size="13px" font-style="normal" font-weight="bold" text-decoration="undefined" x="2190.581298828125" y="597.5" text-anchor="middle" dominant-baseline="central" transform="matrix(1 0 0 1 -598 -110)">InvoiceDaily</text></g></g><g><g><path fill="none" stroke="none"/><text fill="#000000" stroke="none" font-family="Arial" font-size="13px" font-style="normal" font-weight="normal" text-decoration="undefined" x="2133" y="620.5" text-anchor="start" dominant-baseline="central" transform="matrix(1 0 0 1 -598 -110)">-rentalDays: Integer</text></g></g><g><g><path fill="none" stroke="none"/><text fill="#000000" stroke="none" font-family="Arial" font-size="13px" font-style="normal" font-weight="normal" text-decoration="undefined" x="2133" y="643.5" text-anchor="start" dominant-baseline="central" transform="matrix(1 0 0 1 -598 -110)">+getTotal(): Double</text></g></g><g><rect fill="#C0C0C0" stroke="none" x="2015" y="375" width="143.64990234375" height="131" transform="matrix(1 0 0 1 -598 -110)" fill-opacity="0.2"/></g><g><rect fill="#ffffff" stroke="none" x="2008" y="368" width="143.64990234375" height="131" transform="matrix(1 0 0 1 -598 -110)"/></g><g><path fill="none" stroke="#000000" paint-order="fill stroke markers" d=" M 1410 258 L 1553.64990234375 258 L 1553.64990234375 389 L 1410 389 L 1410 258 Z Z" stroke-miterlimit="10" stroke-dasharray=""/></g><g><path fill="none" stroke="#000000" paint-order="fill stroke markers" d=" M 1410 283 L 1553.64990234375 283" stroke-miterlimit="10" stroke-dasharray=""/></g><g><path fill="none" stroke="#000000" paint-order="fill stroke markers" d=" M 1410 366 L 1553.64990234375 366" stroke-miterlimit="10" stroke-dasharray=""/></g><g><g><path fill="none" stroke="none"/><text fill="#000000" stroke="none" font-family="Arial" font-size="13px" font-style="italic" font-weight="bold" text-decoration="undefined" x="2080.324951171875" y="381.5" text-anchor="middle" dominant-baseline="central" transform="matrix(1 0 0 1 -598 -110)">Invoice</text></g></g><g><g><path fill="none" stroke="none"/><text fill="#000000" stroke="none" font-family="Arial" font-size="13px" font-style="normal" font-weight="normal" text-decoration="undefined" x="2013" y="404.5" text-anchor="start" dominant-baseline="central" transform="matrix(1 0 0 1 -598 -110)">-id: String</text></g></g><g><g><path fill="none" stroke="none"/><text fill="#000000" stroke="none" font-family="Arial" font-size="13px" font-style="normal" font-weight="normal" text-decoration="undefined" x="2013" y="419.5" text-anchor="start" dominant-baseline="central" transform="matrix(1 0 0 1 -598 -110)">-roomId: String</text></g></g><g><g><path fill="none" stroke="none"/><text fill="#000000" stroke="none" font-family="Arial" font-size="13px" font-style="normal" font-weight="normal" text-decoration="undefined" x="2013" y="434.5" text-anchor="start" dominant-baseline="central" transform="matrix(1 0 0 1 -598 -110)">-customerName: String</text></g></g><g><g><path fill="none" stroke="none"/><text fill="#000000" stroke="none" font-family="Arial" font-size="13px" font-style="normal" font-weight="normal" text-decoration="undefined" x="2013" y="449.5" text-anchor="start" dominant-baseline="central" transform="matrix(1 0 0 1 -598 -110)">-billedDate: Date</text></g></g><g><g><path fill="none" stroke="none"/><text fill="#000000" stroke="none" font-family="Arial" font-size="13px" font-style="normal" font-weight="normal" text-decoration="undefined" x="2013" y="464.5" text-anchor="start" dominant-baseline="central" transform="matrix(1 0 0 1 -598 -110)">-price: Double</text></g></g><g><g><path fill="none" stroke="none"/><text fill="#000000" stroke="none" font-family="Arial" font-size="13px" font-style="italic" font-weight="normal" text-decoration="undefined" x="2013" y="487.5" text-anchor="start" dominant-baseline="central" transform="matrix(1 0 0 1 -598 -110)">+getTotal(): Double</text></g></g><g><rect fill="#C0C0C0" stroke="none" x="1935" y="591" width="129.2216796875" height="71" transform="matrix(1 0 0 1 -598 -110)" fill-opacity="0.2"/></g><g><rect fill="#ffffff" stroke="none" x="1928" y="584" width="129.2216796875" height="71" transform="matrix(1 0 0 1 -598 -110)"/></g><g><path fill="none" stroke="#000000" paint-order="fill stroke markers" d=" M 1330 474 L 1459.2216796875 474 L 1459.2216796875 545 L 1330 545 L 1330 474 Z Z" stroke-miterlimit="10" stroke-dasharray=""/></g><g><path fill="none" stroke="#000000" paint-order="fill stroke markers" d=" M 1330 499 L 1459.2216796875 499" stroke-miterlimit="10" stroke-dasharray=""/></g><g><path fill="none" stroke="#000000" paint-order="fill stroke markers" d=" M 1330 522 L 1459.2216796875 522" stroke-miterlimit="10" stroke-dasharray=""/></g><g><g><path fill="none" stroke="none"/><text fill="#000000" stroke="none" font-family="Arial" font-size="13px" font-style="normal" font-weight="bold" text-decoration="undefined" x="1993.11083984375" y="597.5" text-anchor="middle" dominant-baseline="central" transform="matrix(1 0 0 1 -598 -110)">InvoiceHourly</text></g></g><g><g><path fill="none" stroke="none"/><text fill="#000000" stroke="none" font-family="Arial" font-size="13px" font-style="normal" font-weight="normal" text-decoration="undefined" x="1933" y="620.5" text-anchor="start" dominant-baseline="central" transform="matrix(1 0 0 1 -598 -110)">-rentalHours: Integer</text></g></g><g><g><path fill="none" stroke="none"/><text fill="#000000" stroke="none" font-family="Arial" font-size="13px" font-style="normal" font-weight="normal" text-decoration="undefined" x="1933" y="643.5" text-anchor="start" dominant-baseline="central" transform="matrix(1 0 0 1 -598 -110)">+getTotal(): Double</text></g></g><g><rect fill="#C0C0C0" stroke="none" x="663" y="439" width="291.46142578125" height="58" transform="matrix(1 0 0 1 -598 -110)" fill-opacity="0.2"/></g><g><rect fill="#ffffff" stroke="none" x="656" y="432" width="291.46142578125" height="58" transform="matrix(1 0 0 1 -598 -110)"/></g><g><path fill="none" stroke="#000000" paint-order="fill stroke markers" d=" M 58 322 L 349.46142578125 322 L 349.46142578125 380 L 58 380 L 58 322 Z Z" stroke-miterlimit="10" stroke-dasharray=""/></g><g><path fill="none" stroke="#000000" paint-order="fill stroke markers" d=" M 58 347 L 349.46142578125 347" stroke-miterlimit="10" stroke-dasharray=""/></g><g><path fill="none" stroke="#000000" paint-order="fill stroke markers" d=" M 58 357 L 349.46142578125 357" stroke-miterlimit="10" stroke-dasharray=""/></g><g><g><path fill="none" stroke="none"/><text fill="#000000" stroke="none" font-family="Arial" font-size="13px" font-style="normal" font-weight="bold" text-decoration="undefined" x="802.230712890625" y="445.5" text-anchor="middle" dominant-baseline="central" transform="matrix(1 0 0 1 -598 -110)">ViewInvoiceListPresenter</text></g></g><g><g><path fill="none" stroke="none"/><text fill="#000000" stroke="none" font-family="Arial" font-size="13px" font-style="normal" font-weight="normal" text-decoration="undefined" x="661" y="478.5" text-anchor="start" dominant-baseline="central" transform="matrix(1 0 0 1 -598 -110)">+present(data: List&lt;ViewInvoiceListDTO&gt;)</text></g></g><g><rect fill="#C0C0C0" stroke="none" x="1503" y="311" width="162.22314453125" height="71" transform="matrix(1 0 0 1 -598 -110)" fill-opacity="0.2"/></g><g><rect fill="#ffffff" stroke="none" x="1496" y="304" width="162.22314453125" height="71" transform="matrix(1 0 0 1 -598 -110)"/></g><g><path fill="none" stroke="#000000" paint-order="fill stroke markers" d=" M 898 194 L 1060.22314453125 194 L 1060.22314453125 265 L 898 265 L 898 194 Z Z" stroke-miterlimit="10" stroke-dasharray=""/></g><g><path fill="none" stroke="#000000" paint-order="fill stroke markers" d=" M 898 232 L 1060.22314453125 232" stroke-miterlimit="10" stroke-dasharray=""/></g><g><path fill="none" stroke="#000000" paint-order="fill stroke markers" d=" M 898 242 L 1060.22314453125 242" stroke-miterlimit="10" stroke-dasharray=""/></g><g><g><path fill="none" stroke="none"/><text fill="#000000" stroke="none" font-family="Arial" font-size="13px" font-style="normal" font-weight="normal" text-decoration="undefined" x="1577.611572265625" y="315.5" text-anchor="middle" dominant-baseline="central" transform="matrix(1 0 0 1 -598 -110)">«control»</text></g></g><g><g><path fill="none" stroke="none"/><text fill="#000000" stroke="none" font-family="Arial" font-size="13px" font-style="normal" font-weight="bold" text-decoration="undefined" x="1577.611572265625" y="330.5" text-anchor="middle" dominant-baseline="central" transform="matrix(1 0 0 1 -598 -110)">ViewInvoiceListUseCase</text></g></g><g><g><path fill="none" stroke="none"/><text fill="#000000" stroke="none" font-family="Arial" font-size="13px" font-style="normal" font-weight="normal" text-decoration="undefined" x="1501" y="363.5" text-anchor="start" dominant-baseline="central" transform="matrix(1 0 0 1 -598 -110)">+execute()</text></g></g><g><rect fill="#C0C0C0" stroke="none" x="1143" y="303" width="199.7314453125" height="61" transform="matrix(1 0 0 1 -598 -110)" fill-opacity="0.2"/></g><g><rect fill="#ffffff" stroke="none" x="1136" y="296" width="199.7314453125" height="61" transform="matrix(1 0 0 1 -598 -110)"/></g><g><path fill="none" stroke="#000000" paint-order="fill stroke markers" d=" M 538 186 L 737.7314453125 186 L 737.7314453125 247 L 538 247 L 538 186 Z Z" stroke-miterlimit="10" stroke-dasharray=""/></g><g><path fill="none" stroke="#000000" paint-order="fill stroke markers" d=" M 538 224 L 737.7314453125 224" stroke-miterlimit="10" stroke-dasharray=""/></g><g><g><path fill="none" stroke="none"/><text fill="#000000" stroke="none" font-family="Arial" font-size="13px" font-style="normal" font-weight="normal" text-decoration="undefined" x="1236.36572265625" y="307.5" text-anchor="middle" dominant-baseline="central" transform="matrix(1 0 0 1 -598 -110)">«interface»</text></g></g><g><g><path fill="none" stroke="none"/><text fill="#000000" stroke="none" font-family="Arial" font-size="13px" font-style="normal" font-weight="bold" text-decoration="undefined" x="1236.36572265625" y="322.5" text-anchor="middle" dominant-baseline="central" transform="matrix(1 0 0 1 -598 -110)">ViewInvoiceInputListBoundary</text></g></g><g><g><path fill="none" stroke="none"/><text fill="#000000" stroke="none" font-family="Arial" font-size="13px" font-style="normal" font-weight="normal" text-decoration="undefined" x="1141" y="345.5" text-anchor="start" dominant-baseline="central" transform="matrix(1 0 0 1 -598 -110)">+execute()</text></g></g><g><rect fill="#C0C0C0" stroke="none" x="1127" y="439" width="282.29541015625" height="61" transform="matrix(1 0 0 1 -598 -110)" fill-opacity="0.2"/></g><g><rect fill="#ffffff" stroke="none" x="1120" y="432" width="282.29541015625" height="61" transform="matrix(1 0 0 1 -598 -110)"/></g><g><path fill="none" stroke="#000000" paint-order="fill stroke markers" d=" M 522 322 L 804.29541015625 322 L 804.29541015625 383 L 522 383 L 522 322 Z Z" stroke-miterlimit="10" stroke-dasharray=""/></g><g><path fill="none" stroke="#000000" paint-order="fill stroke markers" d=" M 522 360 L 804.29541015625 360" stroke-miterlimit="10" stroke-dasharray=""/></g><g><g><path fill="none" stroke="none"/><text fill="#000000" stroke="none" font-family="Arial" font-size="13px" font-style="normal" font-weight="normal" text-decoration="undefined" x="1261.647705078125" y="443.5" text-anchor="middle" dominant-baseline="central" transform="matrix(1 0 0 1 -598 -110)">«interface»</text></g></g><g><g><path fill="none" stroke="none"/><text fill="#000000" stroke="none" font-family="Arial" font-size="13px" font-style="normal" font-weight="bold" text-decoration="undefined" x="1261.647705078125" y="458.5" text-anchor="middle" dominant-baseline="central" transform="matrix(1 0 0 1 -598 -110)">ViewInvoiceListOutputBoundary</text></g></g><g><g><path fill="none" stroke="none"/><text fill="#000000" stroke="none" font-family="Arial" font-size="13px" font-style="normal" font-weight="normal" text-decoration="undefined" x="1125" y="481.5" text-anchor="start" dominant-baseline="central" transform="matrix(1 0 0 1 -598 -110)">+present(data: List&lt;ViewInvoiceListDTO&gt;)</text></g></g><g><path fill="none" stroke="#000000" paint-order="fill stroke markers" d=" M 898 222 L 738 222" stroke-miterlimit="10" stroke-dasharray="3"/></g><g><path fill="#FFFFFF" stroke="none" paint-order="stroke fill markers" d=" M 758.3253497152482 213.580964487968 L 738 222 L 758.3253497152482 230.419035512032"/></g><g><path fill="none" stroke="#000000" paint-order="fill stroke markers" d=" M 758.3253497152482 213.580964487968 L 738 222 L 758.3253497152482 230.419035512032 L 758.3253497152482 213.580964487968" stroke-miterlimit="10" stroke-dasharray=""/></g><g><path fill="none" stroke="#000000" paint-order="fill stroke markers" d=" M 349 354 L 522 354" stroke-miterlimit="10" stroke-dasharray="3"/></g><g><path fill="#FFFFFF" stroke="none" paint-order="stroke fill markers" d=" M 501.6746502847518 362.419035512032 L 522 354 L 501.6746502847516 345.580964487968"/></g><g><path fill="none" stroke="#000000" paint-order="fill stroke markers" d=" M 501.6746502847518 362.419035512032 L 522 354 L 501.6746502847516 345.580964487968 L 501.6746502847518 362.419035512032" stroke-miterlimit="10" stroke-dasharray=""/></g><g><path fill="none" stroke="#000000" paint-order="fill stroke markers" d=" M 1394 474 L 1394 434 L 1482 434 L 1482 389" stroke-miterlimit="10" stroke-dasharray=""/></g><g><path fill="#FFFFFF" stroke="none" paint-order="stroke fill markers" d=" M 1490.4190355120318 409.3253497152483 L 1482 389 L 1473.5809644879682 409.3253497152483"/></g><g><path fill="none" stroke="#000000" paint-order="fill stroke markers" d=" M 1490.4190355120318 409.3253497152483 L 1482 389 L 1473.5809644879682 409.3253497152483 L 1490.4190355120318 409.3253497152483" stroke-miterlimit="10" stroke-dasharray=""/></g><g><path fill="none" stroke="#000000" paint-order="fill stroke markers" d=" M 1578 474 L 1578 434 L 1482 434 L 1482 389" stroke-miterlimit="10" stroke-dasharray=""/></g><g><path fill="#FFFFFF" stroke="none" paint-order="stroke fill markers" d=" M 1490.4190355120318 409.3253497152483 L 1482 389 L 1473.5809644879682 409.3253497152483"/></g><g><path fill="none" stroke="#000000" paint-order="fill stroke markers" d=" M 1490.4190355120318 409.3253497152483 L 1482 389 L 1473.5809644879682 409.3253497152483 L 1490.4190355120318 409.3253497152483" stroke-miterlimit="10" stroke-dasharray=""/></g><g><rect fill="#C0C0C0" stroke="none" x="1471" y="703" width="225.77587890625" height="61" transform="matrix(1 0 0 1 -598 -110)" fill-opacity="0.2"/></g><g><rect fill="#ffffff" stroke="none" x="1464" y="696" width="225.77587890625" height="61" transform="matrix(1 0 0 1 -598 -110)"/></g><g><path fill="none" stroke="#000000" paint-order="fill stroke markers" d=" M 866 586 L 1091.77587890625 586 L 1091.77587890625 647 L 866 647 L 866 586 Z Z" stroke-miterlimit="10" stroke-dasharray=""/></g><g><path fill="none" stroke="#000000" paint-order="fill stroke markers" d=" M 866 624 L 1091.77587890625 624" stroke-miterlimit="10" stroke-dasharray=""/></g><g><g><path fill="none" stroke="none"/><text fill="#000000" stroke="none" font-family="Arial" font-size="13px" font-style="normal" font-weight="normal" text-decoration="undefined" x="1577.387939453125" y="707.5" text-anchor="middle" dominant-baseline="central" transform="matrix(1 0 0 1 -598 -110)">«interface»</text></g></g><g><g><path fill="none" stroke="none"/><text fill="#000000" stroke="none" font-family="Arial" font-size="13px" font-style="normal" font-weight="bold" text-decoration="undefined" x="1577.387939453125" y="722.5" text-anchor="middle" dominant-baseline="central" transform="matrix(1 0 0 1 -598 -110)">ViewInvoiceListDatabaseBoundary</text></g></g><g><g><path fill="none" stroke="none"/><text fill="#000000" stroke="none" font-family="Arial" font-size="13px" font-style="normal" font-weight="normal" text-decoration="undefined" x="1469" y="745.5" text-anchor="start" dominant-baseline="central" transform="matrix(1 0 0 1 -598 -110)">+getInvoiceList(): List&lt;Invoice&gt;</text></g></g><g><path fill="none" stroke="#000000" paint-order="fill stroke markers" d=" M 986 265 L 986 586" stroke-miterlimit="10" stroke-dasharray=""/></g><g><path fill="none" stroke="#000000" paint-order="fill stroke markers" d=" M 981.7904822439841 575.8373251423759 L 986 586 L 990.2095177560159 575.8373251423759" stroke-miterlimit="10" stroke-dasharray=""/></g><g><path fill="none" stroke="#000000" paint-order="fill stroke markers" d=" M 1034 586 L 1034 338 L 1410 338" stroke-miterlimit="10" stroke-dasharray=""/></g><g><path fill="none" stroke="#000000" paint-order="fill stroke markers" d=" M 1399.837325142376 342.209517756016 L 1410 338 L 1399.837325142376 333.790482243984" stroke-miterlimit="10" stroke-dasharray=""/></g><g><rect fill="#000000" stroke="none" x="1008" y="120" width="8" height="728" transform="matrix(1 0 0 1 -598 -110)"/></g><g><path fill="none" stroke="#000000" paint-order="fill stroke markers" d=" M 410 10 L 418 10 L 418 738 L 410 738 L 410 10 Z Z" stroke-miterlimit="10" stroke-dasharray=""/></g><g><rect fill="#000000" stroke="none" x="608" y="840" width="1888" height="8" transform="matrix(1 0 0 1 -598 -110)"/></g><g><path fill="none" stroke="#000000" paint-order="fill stroke markers" d=" M 10 730 L 1898 730 L 1898 738 L 10 738 L 10 730 Z Z" stroke-miterlimit="10" stroke-dasharray=""/></g><g><path fill="none" stroke="#000000" paint-order="fill stroke markers" d=" M 962 265 L 962 352 L 804 352" stroke-miterlimit="10" stroke-dasharray=""/></g><g><path fill="none" stroke="#000000" paint-order="fill stroke markers" d=" M 814.1626748576241 347.790482243984 L 804 352 L 814.1626748576241 356.209517756016" stroke-miterlimit="10" stroke-dasharray=""/></g><g><rect fill="#C0C0C0" stroke="none" x="1487" y="967" width="189.56884765625" height="58" transform="matrix(1 0 0 1 -598 -110)" fill-opacity="0.2"/></g><g><rect fill="#ffffff" stroke="none" x="1480" y="960" width="189.56884765625" height="58" transform="matrix(1 0 0 1 -598 -110)"/></g><g><path fill="none" stroke="#000000" paint-order="fill stroke markers" d=" M 882 850 L 1071.56884765625 850 L 1071.56884765625 908 L 882 908 L 882 850 Z Z" stroke-miterlimit="10" stroke-dasharray=""/></g><g><path fill="none" stroke="#000000" paint-order="fill stroke markers" d=" M 882 875 L 1071.56884765625 875" stroke-miterlimit="10" stroke-dasharray=""/></g><g><path fill="none" stroke="#000000" paint-order="fill stroke markers" d=" M 882 885 L 1071.56884765625 885" stroke-miterlimit="10" stroke-dasharray=""/></g><g><g><path fill="none" stroke="none"/><text fill="#000000" stroke="none" font-family="Arial" font-size="13px" font-style="normal" font-weight="bold" text-decoration="undefined" x="1575.284423828125" y="973.5" text-anchor="middle" dominant-baseline="central" transform="matrix(1 0 0 1 -598 -110)">ViewInvoiceDAOMySQL</text></g></g><g><g><path fill="none" stroke="none"/><text fill="#000000" stroke="none" font-family="Arial" font-size="13px" font-style="normal" font-weight="normal" text-decoration="undefined" x="1485" y="1006.5" text-anchor="start" dominant-baseline="central" transform="matrix(1 0 0 1 -598 -110)">+getInvoiceList(): List&lt;Invoice&gt;</text></g></g><g><path fill="none" stroke="#000000" paint-order="fill stroke markers" d=" M 977 850 L 977 647" stroke-miterlimit="10" stroke-dasharray="3"/></g><g><path fill="#FFFFFF" stroke="none" paint-order="stroke fill markers" d=" M 985.419035512032 667.3253497152483 L 977 647 L 968.580964487968 667.3253497152483"/></g><g><path fill="none" stroke="#000000" paint-order="fill stroke markers" d=" M 985.419035512032 667.3253497152483 L 977 647 L 968.580964487968 667.3253497152483 L 985.419035512032 667.3253497152483" stroke-miterlimit="10" stroke-dasharray=""/></g><g><rect fill="#C0C0C0" stroke="none" x="1196" y="607" width="143.64990234375" height="118" transform="matrix(1 0 0 1 -598 -110)" fill-opacity="0.2"/></g><g><rect fill="#ffffff" stroke="none" x="1189" y="600" width="143.64990234375" height="118" transform="matrix(1 0 0 1 -598 -110)"/></g><g><path fill="none" stroke="#000000" paint-order="fill stroke markers" d=" M 591 490 L 734.64990234375 490 L 734.64990234375 608 L 591 608 L 591 490 Z Z" stroke-miterlimit="10" stroke-dasharray=""/></g><g><path fill="none" stroke="#000000" paint-order="fill stroke markers" d=" M 591 515 L 734.64990234375 515" stroke-miterlimit="10" stroke-dasharray=""/></g><g><path fill="none" stroke="#000000" paint-order="fill stroke markers" d=" M 591 598 L 734.64990234375 598" stroke-miterlimit="10" stroke-dasharray=""/></g><g><g><path fill="none" stroke="none"/><text fill="#000000" stroke="none" font-family="Arial" font-size="13px" font-style="normal" font-weight="bold" text-decoration="undefined" x="1261.324951171875" y="613.5" text-anchor="middle" dominant-baseline="central" transform="matrix(1 0 0 1 -598 -110)">ViewInvoiceListDTO</text></g></g><g><g><path fill="none" stroke="none"/><text fill="#000000" stroke="none" font-family="Arial" font-size="13px" font-style="normal" font-weight="normal" text-decoration="undefined" x="1194" y="636.5" text-anchor="start" dominant-baseline="central" transform="matrix(1 0 0 1 -598 -110)">-id: String</text></g></g><g><g><path fill="none" stroke="none"/><text fill="#000000" stroke="none" font-family="Arial" font-size="13px" font-style="normal" font-weight="normal" text-decoration="undefined" x="1194" y="651.5" text-anchor="start" dominant-baseline="central" transform="matrix(1 0 0 1 -598 -110)">-roomId: String</text></g></g><g><g><path fill="none" stroke="none"/><text fill="#000000" stroke="none" font-family="Arial" font-size="13px" font-style="normal" font-weight="normal" text-decoration="undefined" x="1194" y="666.5" text-anchor="start" dominant-baseline="central" transform="matrix(1 0 0 1 -598 -110)">-customerName: String</text></g></g><g><g><path fill="none" stroke="none"/><text fill="#000000" stroke="none" font-family="Arial" font-size="13px" font-style="normal" font-weight="normal" text-decoration="undefined" x="1194" y="681.5" text-anchor="start" dominant-baseline="central" transform="matrix(1 0 0 1 -598 -110)">-billedDate: Date</text></g></g><g><g><path fill="none" stroke="none"/><text fill="#000000" stroke="none" font-family="Arial" font-size="13px" font-style="normal" font-weight="normal" text-decoration="undefined" x="1194" y="696.5" text-anchor="start" dominant-baseline="central" transform="matrix(1 0 0 1 -598 -110)">-total: Double</text></g></g><g><path fill="none" stroke="#000000" paint-order="fill stroke markers" d=" M 663 383 L 663 490" stroke-miterlimit="10" stroke-dasharray=""/></g><g><path fill="none" stroke="#000000" paint-order="fill stroke markers" d=" M 658.7904822439841 479.8373251423759 L 663 490 L 667.2095177560159 479.8373251423759" stroke-miterlimit="10" stroke-dasharray=""/></g><g><rect fill="#C0C0C0" stroke="none" x="727" y="207" width="169.40869140625" height="45" transform="matrix(1 0 0 1 -598 -110)" fill-opacity="0.2"/></g><g><rect fill="#ffffff" stroke="none" x="720" y="200" width="169.40869140625" height="45" transform="matrix(1 0 0 1 -598 -110)"/></g><g><path fill="none" stroke="#000000" paint-order="fill stroke markers" d=" M 122 90 L 291.40869140625 90 L 291.40869140625 135 L 122 135 L 122 90 Z Z" stroke-miterlimit="10" stroke-dasharray=""/></g><g><path fill="none" stroke="#000000" paint-order="fill stroke markers" d=" M 122 115 L 291.40869140625 115" stroke-miterlimit="10" stroke-dasharray=""/></g><g><path fill="none" stroke="#000000" paint-order="fill stroke markers" d=" M 122 125 L 291.40869140625 125" stroke-miterlimit="10" stroke-dasharray=""/></g><g><g><path fill="none" stroke="none"/><text fill="#000000" stroke="none" font-family="Arial" font-size="13px" font-style="normal" font-weight="bold" text-decoration="undefined" x="805.204345703125" y="213.5" text-anchor="middle" dominant-baseline="central" transform="matrix(1 0 0 1 -598 -110)">ViewInvoiceListController</text></g></g></g></svg>