<svg version="1.1" xmlns="http://www.w3.org/2000/svg" xmlns:xlink="http://www.w3.org/1999/xlink" width="1092.841796875" height="588"><defs/><g><g><path fill="none" stroke="#000000" paint-order="fill stroke markers" d=" M 531.1302734375 293 C 531.1302734375 282.39613184 539.7264052775 273.8 550.3302734375 273.8 C 560.9341415975 273.8 569.5302734375 282.39613184 569.5302734375 293 C 569.5302734375 303.60386816 560.9341415975 312.2 550.3302734375 312.2 C 539.7264052775 312.2 531.1302734375 303.60386816 531.1302734375 293 Z" stroke-miterlimit="10" stroke-dasharray=""/></g><g><path fill="#a1e4fa" stroke="none" paint-order="stroke fill markers" d=" M 531.6102734374999 293 C 531.6102734374999 282.661228544 539.9915019814999 274.28 550.3302734375 274.28 C 560.6690448935 274.28 569.0502734375 282.661228544 569.0502734375 293 C 569.0502734375 303.338771456 560.6690448935 311.71999999999997 550.3302734375 311.71999999999997 C 539.9915019814999 311.71999999999997 531.6102734374999 303.338771456 531.6102734374999 293 Z"/></g><g><path fill="none" stroke="#000000" paint-order="fill stroke markers" d=" M 521.5302734375 273.8 L 521.5302734375 312.2" stroke-miterlimit="10" stroke-dasharray=""/></g><g><path fill="none" stroke="#000000" paint-order="fill stroke markers" d=" M 521.5302734375 293 L 531.1302734375 293" stroke-miterlimit="10" stroke-dasharray=""/></g><g><g><path fill="none" stroke="none"/><text fill="#000000" stroke="none" font-family="Arial" font-size="13px" font-style="normal" font-weight="bold" text-decoration="undefined" x="301.0302734375" y="309.5" text-anchor="middle" dominant-baseline="central" transform="matrix(1 0 0 1 245 21)">ViewInvoiceListInput</text></g></g><g><path fill="none" stroke="#000000" paint-order="fill stroke markers" d=" M 772.111572265625 407 C 772.111572265625 397.0588736 780.170445865625 389 790.111572265625 389 C 800.052698665625 389 808.111572265625 397.0588736 808.111572265625 407 C 808.111572265625 416.9411264 800.052698665625 425 790.111572265625 425 C 780.170445865625 425 772.111572265625 416.9411264 772.111572265625 407 Z" stroke-miterlimit="10" stroke-dasharray=""/></g><g><path fill="#fce5b2" stroke="none" paint-order="stroke fill markers" d=" M 772.711572265625 407 C 772.711572265625 397.39024448000004 780.501816745625 389.6 790.111572265625 389.6 C 799.721327785625 389.6 807.511572265625 397.39024448000004 807.511572265625 407 C 807.511572265625 416.60975551999996 799.721327785625 424.4 790.111572265625 424.4 C 780.501816745625 424.4 772.711572265625 416.60975551999996 772.711572265625 407 Z"/></g><g><path fill="none" stroke="#000000" paint-order="fill stroke markers" d=" M 790.111572265625 389 L 796.111572265625 383" stroke-miterlimit="10" stroke-dasharray=""/></g><g><path fill="none" stroke="#000000" paint-order="fill stroke markers" d=" M 790.111572265625 389 L 796.111572265625 395" stroke-miterlimit="10" stroke-dasharray=""/></g><g><g><path fill="none" stroke="none"/><text fill="#000000" stroke="none" font-family="Arial" font-size="13px" font-style="normal" font-weight="bold" text-decoration="undefined" x="545.611572265625" y="423.5" text-anchor="middle" dominant-baseline="central" transform="matrix(1 0 0 1 245 21)">ViewInvoiceListUseCase</text></g></g><g><path fill="none" stroke="#000000" paint-order="fill stroke markers" d=" M 531.54482421875 407 C 531.54482421875 396.39613184 540.14095605875 387.8 550.74482421875 387.8 C 561.34869237875 387.8 569.94482421875 396.39613184 569.94482421875 407 C 569.94482421875 417.60386816 561.34869237875 426.2 550.74482421875 426.2 C 540.14095605875 426.2 531.54482421875 417.60386816 531.54482421875 407 Z" stroke-miterlimit="10" stroke-dasharray=""/></g><g><path fill="#a1e4fa" stroke="none" paint-order="stroke fill markers" d=" M 532.0248242187499 407 C 532.0248242187499 396.66122854400004 540.4060527627499 388.28000000000003 550.74482421875 388.28000000000003 C 561.08359567475 388.28000000000003 569.46482421875 396.66122854400004 569.46482421875 407 C 569.46482421875 417.33877145599996 561.08359567475 425.71999999999997 550.74482421875 425.71999999999997 C 540.4060527627499 425.71999999999997 532.0248242187499 417.33877145599996 532.0248242187499 407 Z"/></g><g><path fill="none" stroke="#000000" paint-order="fill stroke markers" d=" M 521.94482421875 387.8 L 521.94482421875 426.2" stroke-miterlimit="10" stroke-dasharray=""/></g><g><path fill="none" stroke="#000000" paint-order="fill stroke markers" d=" M 521.94482421875 407 L 531.54482421875 407" stroke-miterlimit="10" stroke-dasharray=""/></g><g><g><path fill="none" stroke="none"/><text fill="#000000" stroke="none" font-family="Arial" font-size="13px" font-style="normal" font-weight="bold" text-decoration="undefined" x="301.44482421875" y="423.5" text-anchor="middle" dominant-baseline="central" transform="matrix(1 0 0 1 245 21)">ViewInvoiceListOutput</text></g></g><g><path fill="none" stroke="#000000" paint-order="fill stroke markers" d=" M 531.152490234375 529 C 531.152490234375 518.39613184 539.748622074375 509.8 550.352490234375 509.8 C 560.956358394375 509.8 569.552490234375 518.39613184 569.552490234375 529 C 569.552490234375 539.60386816 560.956358394375 548.2 550.352490234375 548.2 C 539.748622074375 548.2 531.152490234375 539.60386816 531.152490234375 529 Z" stroke-miterlimit="10" stroke-dasharray=""/></g><g><path fill="#a1e4fa" stroke="none" paint-order="stroke fill markers" d=" M 531.6324902343749 529 C 531.6324902343749 518.661228544 540.0137187783749 510.28000000000003 550.352490234375 510.28000000000003 C 560.691261690375 510.28000000000003 569.072490234375 518.661228544 569.072490234375 529 C 569.072490234375 539.338771456 560.691261690375 547.72 550.352490234375 547.72 C 540.0137187783749 547.72 531.6324902343749 539.338771456 531.6324902343749 529 Z"/></g><g><path fill="none" stroke="#000000" paint-order="fill stroke markers" d=" M 521.552490234375 509.8 L 521.552490234375 548.2" stroke-miterlimit="10" stroke-dasharray=""/></g><g><path fill="none" stroke="#000000" paint-order="fill stroke markers" d=" M 521.552490234375 529 L 531.152490234375 529" stroke-miterlimit="10" stroke-dasharray=""/></g><g><g><path fill="none" stroke="none"/><text fill="#000000" stroke="none" font-family="Arial" font-size="13px" font-style="normal" font-weight="bold" text-decoration="undefined" x="301.052490234375" y="545.5" text-anchor="middle" dominant-baseline="central" transform="matrix(1 0 0 1 245 21)">ViewInvoiceListDatabase</text></g></g><g><path fill="none" stroke="#000000" paint-order="fill stroke markers" d=" M 998.51455078125 407 C 998.51455078125 395.73339008 1007.64794086125 386.6 1018.91455078125 386.6 C 1030.18116070125 386.6 1039.31455078125 395.73339008 1039.31455078125 407 C 1039.31455078125 418.26660992 1030.18116070125 427.4 1018.91455078125 427.4 C 1007.64794086125 427.4 998.51455078125 418.26660992 998.51455078125 407 Z" stroke-miterlimit="10" stroke-dasharray=""/></g><g><path fill="#bbf8e7" stroke="none" paint-order="stroke fill markers" d=" M 999.11455078125 407 C 999.11455078125 396.06476096 1007.9793117412501 387.2 1018.91455078125 387.2 C 1029.84978982125 387.2 1038.71455078125 396.06476096 1038.71455078125 407 C 1038.71455078125 417.93523904 1029.84978982125 426.8 1018.91455078125 426.8 C 1007.9793117412501 426.8 999.11455078125 417.93523904 999.11455078125 407 Z"/></g><g><path fill="none" stroke="#000000" paint-order="fill stroke markers" d=" M 998.51455078125 427.4 L 1039.31455078125 427.4" stroke-miterlimit="10" stroke-dasharray=""/></g><g><g><path fill="none" stroke="none"/><text fill="#000000" stroke="none" font-family="Arial" font-size="13px" font-style="italic" font-weight="bold" text-decoration="undefined" x="774.41455078125" y="423.5" text-anchor="middle" dominant-baseline="central" transform="matrix(1 0 0 1 245 21)">Invoice</text></g></g><g><path fill="none" stroke="#000000" paint-order="fill stroke markers" d=" M 998.873193359375 293 C 998.873193359375 281.73339008 1008.006583439375 272.6 1019.273193359375 272.6 C 1030.539803279375 272.6 1039.673193359375 281.73339008 1039.673193359375 293 C 1039.673193359375 304.26660992 1030.539803279375 313.4 1019.273193359375 313.4 C 1008.006583439375 313.4 998.873193359375 304.26660992 998.873193359375 293 Z" stroke-miterlimit="10" stroke-dasharray=""/></g><g><path fill="#bbf8e7" stroke="none" paint-order="stroke fill markers" d=" M 999.473193359375 293 C 999.473193359375 282.06476096 1008.3379543193751 273.2 1019.273193359375 273.2 C 1030.208432399375 273.2 1039.073193359375 282.06476096 1039.073193359375 293 C 1039.073193359375 303.93523904 1030.208432399375 312.8 1019.273193359375 312.8 C 1008.3379543193751 312.8 999.473193359375 303.93523904 999.473193359375 293 Z"/></g><g><path fill="none" stroke="#000000" paint-order="fill stroke markers" d=" M 998.873193359375 313.4 L 1039.673193359375 313.4" stroke-miterlimit="10" stroke-dasharray=""/></g><g><g><path fill="none" stroke="none"/><text fill="#000000" stroke="none" font-family="Arial" font-size="13px" font-style="normal" font-weight="bold" text-decoration="undefined" x="774.773193359375" y="309.5" text-anchor="middle" dominant-baseline="central" transform="matrix(1 0 0 1 245 21)">InvoiceHourly</text></g></g><g><path fill="none" stroke="#000000" paint-order="fill stroke markers" d=" M 999.0208984375 529 C 999.0208984375 517.7333900799999 1008.1542885175 508.6 1019.4208984375 508.6 C 1030.6875083575 508.6 1039.8208984375 517.7333900799999 1039.8208984375 529 C 1039.8208984375 540.26660992 1030.6875083575 549.4 1019.4208984375 549.4 C 1008.1542885175 549.4 999.0208984375 540.26660992 999.0208984375 529 Z" stroke-miterlimit="10" stroke-dasharray=""/></g><g><path fill="#bbf8e7" stroke="none" paint-order="stroke fill markers" d=" M 999.6208984375 529 C 999.6208984375 518.0647609600001 1008.4856593975001 509.2 1019.4208984375 509.2 C 1030.3561374775 509.2 1039.2208984375 518.0647609600001 1039.2208984375 529 C 1039.2208984375 539.9352390399999 1030.3561374775 548.8 1019.4208984375 548.8 C 1008.4856593975001 548.8 999.6208984375 539.9352390399999 999.6208984375 529 Z"/></g><g><path fill="none" stroke="#000000" paint-order="fill stroke markers" d=" M 999.0208984375 549.4 L 1039.8208984375 549.4" stroke-miterlimit="10" stroke-dasharray=""/></g><g><g><path fill="none" stroke="none"/><text fill="#000000" stroke="none" font-family="Arial" font-size="13px" font-style="normal" font-weight="bold" text-decoration="undefined" x="774.9208984375" y="545.5" text-anchor="middle" dominant-baseline="central" transform="matrix(1 0 0 1 245 21)">InvoiceDaily</text></g></g></g></svg>